<?xml version="1.0" encoding="utf-8"?>
<!-- Generator: Adobe Illustrator 17.0.0, SVG Export Plug-In . SVG Version: 6.00 Build 0)  -->
<!DOCTYPE svg PUBLIC "-//W3C//DTD SVG 1.1//EN" "http://www.w3.org/Graphics/SVG/1.1/DTD/svg11.dtd">
<svg version="1.1" id="Layer_1" xmlns="http://www.w3.org/2000/svg" xmlns:xlink="http://www.w3.org/1999/xlink" x="0px" y="0px"
	 width="328.058px" height="53.237px" viewBox="0 0 328.058 53.237" enable-background="new 0 0 328.058 53.237"
	 xml:space="preserve">
<g>
	<g>
		<g>
			<g>
				<g>
					<path d="M31.418,17.105l0.623,0.027l0.545-1.669h-0.047l0.704-2.112l1.872-0.041l0.159-0.454h-7.507l-0.142,0.518h-1.652
						l-0.02,0.095h-0.234l-0.575,1.939h0.054l-0.454,1.53h0.176v0.02l-0.978-0.02l-0.623,2.095l0.741,0.037l-1.28,4.295h0.234l0,0
						h-0.281l-1.753,5.886l-1.808-5.974l-0.602-0.037l0,0l0.65,0.037l-1.371-4.596l-0.67-0.024l-0.575-1.929l0.717,0.007
						l-0.413-1.374h-0.075l-0.477-1.642l1.848-0.058l-0.251-0.806h-7.45l0.166,0.518H8.95l0.152,0.45H8.95l0.497,1.479h0.047
						l0.406,1.256h0.105l0.01,0.027L9.092,16.56l0.572,1.723l0.775,0.041L12,23.069l0.159,0.007l0,0l-0.207-0.007l2.383,7.22h-0.677
						l0.064,0.21l0.887,0.014l2.071,6.269h-0.365l1.262,3.849h0.271l0.514,1.574h5.355l0.511-1.526h-0.264l1.344-4.025l1.124-0.017
						l1.967-5.957l-1.472-0.014l0.105-0.315h0.521l2.247-6.793l-0.511-0.01l0,0l0.559,0.01l1.371-4.129L30.657,19.4L31.418,17.105z
						 M20.79,30.583h-0.017h0.102l0,0H20.79z"/>
				</g>
			</g>
			<g>
				<g>
					<path d="M53.907,30.289h0.545c0.024-0.85,0.041-1.804,0.041-2.884c0-1.263-0.017-2.342-0.058-3.29l-0.558-0.024l0,0
						l0.616,0.024c-0.058-1.222-0.146-2.2-0.274-2.887c-0.037-0.233-0.095-0.447-0.135-0.656l-0.67-0.047
						c-0.281-1.056-0.663-2.011-1.178-2.84c-0.024-0.044-0.041-0.098-0.064-0.139h-0.017c0,0-0.007-0.01-0.007-0.024l0.833,0.024
						c-0.376-0.663-0.833-1.249-1.347-1.77c-0.118-0.105-0.223-0.207-0.335-0.312h-0.054c-1.313-1.215-2.816-2.061-4.485-2.528
						l1.747-0.041c-1.016-0.271-2.095-0.409-3.256-0.409c-1.289,0-2.491,0.179-3.612,0.531l-2.031,0.031
						c-1.482,0.474-2.796,1.242-3.98,2.315h0.051c-0.156,0.129-0.298,0.271-0.457,0.413c-0.376,0.396-0.714,0.826-1.026,1.283
						l0.311,0.007c-0.014,0.017-0.014,0.017-0.014,0.024l-1.103-0.031c-0.474,0.704-0.843,1.472-1.124,2.342l0.728,0.044
						c-0.183,0.558-0.342,1.144-0.454,1.784c-0.105,0.575-0.176,1.344-0.24,2.265l0.183,0.017l0,0l-0.23-0.017
						c-0.064,1.083-0.098,2.376-0.098,3.913c0,1.042,0.017,1.983,0.041,2.803H31.52c0,0.129,0.01,0.264,0.01,0.376l0.904,0.017
						c0.064,1.303,0.146,2.339,0.271,3.046c0.183,1.012,0.474,1.892,0.85,2.715l-0.376,0.017c0.447,1.026,1.049,1.916,1.784,2.64
						c0.633,0.64,1.313,1.178,2.017,1.618l0.271,0.017c1.794,1.117,3.852,1.682,6.188,1.682c2.264,0,4.275-0.538,6.022-1.594
						l-0.251-0.007c0.768-0.457,1.489-1.033,2.17-1.716c0.816-0.806,1.455-1.807,1.929-2.968l1.127-0.024
						c0.305-0.745,0.538-1.55,0.697-2.44c0.112-0.647,0.193-1.56,0.257-2.698l-1.513-0.017
						C53.894,30.678,53.907,30.498,53.907,30.289z"/>
				</g>
			</g>
			<g>
				<g>
					<path d="M98.025,30.373h0.535V25.33l-0.535-0.014l0,0l0.599,0.014v-2.305l-0.599-0.031v-4.289l0.657,0.017v-2.948h-0.058
						v-3.046h-7.226v2.992h0.058v2.819h0.129v0.031l-0.924-0.031v4.082l0.755,0.054v2.464h0.169l0,0H91.35v5.196h-0.68v0.992
						l0.914,0.017v0.399c0,1.367-0.379,2.505-1.131,3.354c-0.095,0.122-0.206,0.19-0.318,0.301l-0.819,0.01
						c-0.575,0.329-1.263,0.481-2.072,0.481c-0.745,0-1.36-0.129-1.889-0.399l1.063-0.017c-0.359-0.186-0.687-0.423-0.951-0.751
						c-0.647-0.785-0.985-1.818-0.985-3.114v-0.342l-1.506-0.027v-0.89h0.538v-5.433l-0.538-0.014l0,0l0.602,0.014v-2.728
						l-0.602-0.024v-3.842l0.657,0.007V15.67h-0.054v-2.941h-7.22v2.904h0.047v2.515h0.129v0.031l-0.938-0.031v3.655l0.761,0.034
						v2.881h0.176v0.017l-0.234-0.017v5.595h-0.68v0.829h0.914v0.761c0,1.354,0.217,2.586,0.633,3.713l-0.386,0.017
						c0.531,1.452,1.384,2.715,2.586,3.794c0.68,0.609,1.432,1.134,2.217,1.554h0.274c1.655,0.894,3.537,1.354,5.643,1.354
						c1.983,0,3.825-0.433,5.504-1.266h-0.264c0.244-0.122,0.457-0.233,0.684-0.359c1.865-1.097,3.233-2.644,4.119-4.644
						c0.112-0.247,0.21-0.528,0.298-0.785l1.12-0.017c0.376-1.08,0.558-2.237,0.558-3.49v-0.328l-1.496-0.024V30.373z"/>
				</g>
			</g>
			<g>
				<g>
					<path d="M127.622,30.448h0.545v-4.306l-0.545-0.017l0,0l0.602,0.017v-1.489l-0.602-0.024v-5.148l0.639,0.01v-3.524h-0.037
						v-3.239h-7.101l-1.625,3.178h0.047l-1.679,3.314l0.24,0.014l-0.017,0.024l-1.033-0.037l-2.4,4.729l0.721,0.041l-0.85,1.682
						l-0.921-1.828l-0.738-0.037l-2.43-4.773l0.768,0.017l-1.635-3.209h-0.064l-1.577-3.114h-7.091v3.067h0.051v2.992h0.136v0.024
						l-0.931-0.024v4.37l0.745,0.041v2.2h0.186l0,0h-0.24v4.952h-0.674v1.097l0.914,0.017v3.757h-0.393v5.907h0.257v0.951h7.227
						v-0.904h-0.271v-6.059l1.117-0.017v-3.531l-1.503-0.034v-1.127h0.535v-2.376l1.36,2.342h-0.67l0.68,1.195l0.904,0.007
						l1.97,3.442h-0.386l0.159,0.264h4.61l0.186-0.328l1.137-0.007l1.848-3.249l-1.479-0.017l0.728-1.249h0.518l1.384-2.4v2.376
						h-0.68v1.289l0.914,0.017v3.151l-0.393,0.01v6.401h0.264v0.802h7.209V41.33h-0.264v-6.57l1.124-0.017v-2.924l-1.499-0.02
						V30.448z M113.856,25.75l0.914,0.041l0,0L113.856,25.75L113.856,25.75z"/>
				</g>
			</g>
			<g>
				<g>
					<polygon points="150.882,12.728 130.935,12.728 130.935,15.984 131,15.984 131,19.572 131.111,19.572 131.111,19.586 
						130.191,19.572 130.191,24.815 130.935,24.853 130.935,26.223 131.111,26.23 131.111,26.23 130.881,26.223 130.881,30.431 
						130.201,30.431 130.201,31.826 131.111,31.842 131.111,34.699 130.729,34.699 130.729,41.357 131,41.357 131,42.078 
						150.93,42.078 150.93,41.502 150.683,41.502 150.683,35.66 137.932,35.66 137.932,34.594 139.052,34.577 139.052,31.944 
						137.556,31.92 137.556,30.471 139.668,30.471 148.977,30.498 148.977,26.725 148.432,26.718 148.432,26.718 149.041,26.725 
						149.041,25.814 148.432,25.777 148.432,24.589 148.273,24.589 148.273,24.067 137.556,24.067 137.556,19.738 138.203,19.755 
						138.203,19.163 150.93,19.163 150.93,16.113 150.882,16.113 					"/>
				</g>
			</g>
			<g>
				<g>
					<polygon points="76.406,35.66 75.655,35.66 75.286,35.66 64.447,35.66 64.447,31.006 62.934,30.993 62.934,30.312 
						63.489,30.312 63.489,24.365 62.934,24.338 62.934,24.338 63.537,24.365 63.537,21.085 62.934,21.062 62.934,17.795 
						63.591,17.826 63.591,15.544 63.537,15.544 63.537,12.728 56.317,12.728 56.317,15.49 56.365,15.49 56.365,17.626 56.5,17.64 
						56.5,17.657 55.573,17.626 55.573,20.689 56.317,20.733 56.317,24.172 56.5,24.172 56.5,24.172 56.263,24.172 56.263,30.262 
						55.589,30.262 55.589,30.888 56.5,30.901 56.5,35.972 56.107,35.989 56.107,40.778 56.365,40.798 56.365,42.078 75.912,42.078 
						75.912,40.941 75.655,40.941 75.655,35.66 					"/>
				</g>
			</g>
			<g>
				<g>
					<path d="M176.607,33.937v-1.53l-1.506-0.024v-1.831h0.552v-3.097l-0.552-0.01l0,0l0.592,0.01v-0.169l-0.592-0.041v-6.54
						l0.657,0.007v-4.431h-0.064v-3.554h-7.21v3.507h0.064v4.306h0.119v0.024l-0.928-0.024v6.306l-0.433-0.024l-4.089-6.428
						l0.826,0.024l-2.708-4.228h-0.047l-2.21-3.463h-6.289v3.402h0.047v4.001h0.119v0.024l-0.928-0.024v5.893l0.761,0.031v0.775
						h0.166l0,0h-0.224v3.642h-0.687v1.625l0.911,0.017v2.2l-0.376,0.017v7.186h0.257v0.562h7.213v-0.511h-0.267v-7.342l1.12-0.024
						v-1.987l-1.503-0.024v-1.672h0.545v-3.192l2.017,3.171h-0.663l1.097,1.733l0.9,0.007l1.195,1.885h-0.376l4.786,7.521h0.271
						l0.281,0.433h6.306v-0.383l-0.264-0.01v-7.731L176.607,33.937z M168.338,27.262l-0.223-0.352l0.369,0.017v0.335h0.183v0.014
						l-0.241-0.014v0.23l-0.142-0.23l-0.704-0.024l0,0L168.338,27.262z M159.398,27.016L159.398,27.016l0.586,0.014l0,0
						L159.398,27.016z"/>
				</g>
			</g>
		</g>
	</g>
	<g>
		<path d="M209.214,42.078h-3.891l-3.259-7.132h-12.812l-3.29,7.132h-3.842l13.373-29.743L209.214,42.078z M190.461,31.639h10.094
			l-5.06-11.285L190.461,31.639z"/>
		<path d="M232.718,36.418v3.883c-0.575,0.409-1.185,0.745-1.814,1.015c-0.629,0.288-1.273,0.515-1.929,0.691
			c-0.873,0.223-1.747,0.389-2.593,0.511c-0.833,0.102-1.598,0.169-2.281,0.169c-3.73,0-6.736-1.164-9.044-3.483
			c-2.315-2.322-3.825-4.857-4.529-7.629c-0.149-0.606-0.257-1.202-0.339-1.801c-0.061-0.582-0.102-1.161-0.102-1.72
			c0-0.047,0-0.092,0-0.129c0-0.037,0-0.081,0-0.129c0-0.058,0-0.095,0-0.125c0-0.044,0-0.098,0-0.136
			c0.102-3.693,0.989-6.543,2.695-8.591c1.713-2.031,3.561-3.524,5.578-4.458c1.259-0.579,2.464-0.985,3.642-1.219
			c1.171-0.223,2.166-0.325,2.972-0.325c1.638,0,3.08,0.142,4.333,0.447c1.239,0.311,2.383,0.751,3.412,1.367v4.123
			c-0.203-0.159-0.413-0.305-0.636-0.447c-0.223-0.132-0.44-0.274-0.643-0.433c-1.083-0.647-2.159-1.131-3.215-1.459
			c-1.056-0.308-2.092-0.471-3.094-0.471c-3.148,0-5.856,1.195-8.097,3.564c-2.24,2.359-3.365,4.993-3.365,7.9
			c0,3.598,1.178,6.455,3.527,8.554c2.342,2.099,4.976,3.151,7.934,3.151c0.217,0,0.44,0,0.65-0.014
			c0.21-0.01,0.447-0.031,0.663-0.064c1.083-0.112,2.173-0.399,3.236-0.846c1.076-0.443,2.092-1.066,3.039-1.865V36.418z"/>
		<path d="M239.563,13.808v11.299h13.682V13.808h3.561v28.27h-3.561V28.095h-13.682v13.983h-3.588v-28.27H239.563z"/>
		<path d="M277.324,13.808v3.28h-11.603v7.413h11.326v3.297h-11.326v10.727h11.603v3.554h-15.462v-28.27H277.324z"/>
	</g>
	<g>
		<path d="M182.418,26.846c0,1.033-0.833,1.848-1.865,1.848c-1.019,0-1.865-0.816-1.865-1.848c0-1.032,0.846-1.865,1.865-1.865
			C181.586,24.981,182.418,25.814,182.418,26.846z"/>
	</g>
	<g>
		<g>
			<path fill-rule="evenodd" clip-rule="evenodd" d="M298.039,22.531c1.699,0,3.48-1.736,2.451-3.121
				c-0.812-1.08-1.232-4.211,1.049-5.554c2.471-1.439,6.844-1.043,6.844-1.043s3.791,0.122,2.2,4.085
				c-2.688,6.729-0.873,9.701,2.295,8.669c3.337-1.097,5.497-2.64,6.817,1.432c2.078,6.434-0.86,11.42-4.475,7.788
				c-1.34-1.354-2.999-1.76-4.915,0.207c-2.004,2.048,2.166,4.793,0.487,6.702c-1.097,1.252-2.992,1.997-7.887,0.484
				c-3.784-1.178-3.784-3.304-2.715-4.6c2.803-3.419-0.169-5.595-2.362-5.947c-2.031-0.312-5.423,0.23-3.48,4.123
				c0.846,1.648,1.591,6.188-1.415,5.128c-3.019-1.053-4.258-1.415-4.766-2.633c-0.928-2.2,2.051-3.568,1.097-6.611
				c-0.731-2.342-1.713-1.469-3.297-1.408c-1.232,0.058-1.53-3.568-1.361-4.962c0.413-3.439,2.112-1.073,3.561-0.663
				c1.557,0.417,2.505-1.215,1.293-5.964c-0.65-2.528,1.266-3.256,1.266-3.256s2.207-0.809,3.974-0.156
				c1.889,0.7,0.264,3.178-0.183,4.444C293.842,21.556,296.489,22.531,298.039,22.531z M290.051,25.479
				c-0.488,0.477-1.165,0.64-2.038,0.366c-0.237-0.068-0.481-0.186-0.711-0.305c-0.21-0.119-0.413-0.247-0.602-0.376
				c-0.169-0.102-0.346-0.207-0.515-0.312c-0.129-0.081-0.257-0.142-0.372-0.186l-0.19-0.024c-0.02,0.01-0.108,0.156-0.21,0.738
				l-0.291-0.23c0.169-1.121,0.453-1.06,0.751-0.955c0.129,0.044,0.271,0.119,0.433,0.2c0.169,0.105,0.352,0.21,0.521,0.322
				c0.365,0.24,0.806,0.514,1.252,0.633c0.772,0.217,1.381,0.061,1.794-0.423L290.051,25.479z M290.572,16.319
				c0.129-0.068,0.217-0.112,0.258-0.129c0,0,2.031-0.7,3.581-0.088c0.474,0.169,0.501,0.416,0.359,0.978
				c-0.088,0.335-0.237,0.714-0.406,1.121c-0.183,0.43-0.386,0.833-0.494,1.178c-0.575,1.615,0.359,2.681,1.171,3.199
				c0.887,0.565,2.072,0.873,2.972,0.894c1.043,0.014,2.139-0.501,2.871-1.29c0.102-0.105,0.183-0.227,0.311-0.345l0.514,0.278
				c-0.122,0.18-0.271,0.359-0.413,0.521c-0.846,0.921-2.112,1.472-3.297,1.449c-0.961-0.031-2.241-0.352-3.195-0.985
				c-0.833-0.559-2.085-1.865-1.367-3.937c0.122-0.338,0.312-0.755,0.508-1.208c0.176-0.393,0.284-0.721,0.366-0.995
				c0.027-0.125,0.068-0.166,0.068-0.207c-0.014-0.017-0.068-0.047-0.156-0.088c-0.697-0.281-1.543-0.264-2.22-0.166
				c-0.636,0.088-1.111,0.237-1.171,0.267L290.572,16.319z M317.19,33.785l0.108-0.159c0.582-1.039,0.887-3.337,0-6.133
				c-0.19-0.582-0.352-0.911-0.474-1.067c-0.169,0.027-0.454,0.092-0.921,0.237c-0.704,0.223-1.475,0.494-2.315,0.741
				c-2.62,0.789-5.057-0.19-5.896-2.657c-0.684-1.984-0.305-4.81,1.049-8.323c0.379-0.978,0.122-1.313-0.075-1.455
				c-0.277-0.224-0.697-0.264-0.758-0.264c-0.041-0.007-1.083-0.112-2.329-0.071c-1.259,0.031-2.606,0.213-3.5,0.728
				c-0.102,0.061-0.21,0.142-0.285,0.233l-0.311-0.562c0.102-0.105,0.23-0.193,0.372-0.274c2.139-1.215,6.154-0.822,6.235-0.806
				c0.19,0.014,2.369,0.142,1.388,2.657c-1.374,3.48-1.692,6.137-1.076,7.897c0.704,2.068,2.674,2.843,4.908,2.156
				c0.812-0.251,1.577-0.538,2.261-0.755c0.691-0.223,1.144-0.311,1.435-0.325c0.203,0,0.291,0.037,0.433,0.149
				c0.21,0.2,0.514,0.633,0.792,1.567c0.941,2.948,0.684,5.493-0.047,6.756c-0.142,0.234-0.264,0.403-0.392,0.538L317.19,33.785z
				 M310.353,33.335c-0.318,0.237-0.643,0.521-0.955,0.85c-1.476,1.537-0.602,3.354-0.061,4.475
				c0.142,0.274,0.278,0.545,0.393,0.816c0.122,0.264,0.19,0.457,0.223,0.64c0.081,0.311,0.047,0.538-0.122,0.761
				c-0.217,0.23-0.474,0.481-0.846,0.67l-0.521-0.629c0.352-0.176,0.555-0.393,0.724-0.579c0.047-0.061,0.068-0.078,0.02-0.223
				c-0.02-0.105-0.075-0.254-0.176-0.477c-0.108-0.264-0.237-0.521-0.366-0.785c-0.142-0.298-0.318-0.65-0.453-1.016
				c-0.142-0.393-0.278-0.819-0.345-1.289c-0.129-0.938,0.068-1.953,0.928-2.884c0.399-0.447,0.894-0.792,1.333-1.076
				L310.353,33.335z M293.171,39.621c0.562,0.119,0.697-0.176,0.738-0.745c0.061-0.856-0.237-2.034-0.514-2.559
				c-1.036-2.115-0.989-3.828-0.108-4.908l0.318,0.433c-0.711,0.894-0.785,2.319,0.169,4.248c0.325,0.65,0.663,1.97,0.589,2.972
				c-0.054,0.718-0.284,1.192-0.948,1.134L293.171,39.621z"/>
		</g>
	</g>
</g>
</svg>
