<?xml version="1.0" encoding="utf-8"?>
<!-- Generator: Adobe Illustrator 17.0.0, SVG Export Plug-In . SVG Version: 6.00 Build 0)  -->
<!DOCTYPE svg PUBLIC "-//W3C//DTD SVG 1.1//EN" "http://www.w3.org/Graphics/SVG/1.1/DTD/svg11.dtd">
<svg version="1.1" id="Layer_1" xmlns="http://www.w3.org/2000/svg" xmlns:xlink="http://www.w3.org/1999/xlink" x="0px" y="0px"
	 width="257px" height="108px" viewBox="0 0 257 108" enable-background="new 0 0 257 108" xml:space="preserve">
<g>
	<g>
		<g>
			<path d="M91.382,32.055c0-6.935,4.249-11.571,9.218-11.571c2.801,0,4.235,1.103,5.474,2.335c0.311-0.277,0.684-0.993,0.684-1.613
				c0-0.206,0.036-0.583,0.479-0.583c0.55,0,0.55,0.377,0.55,0.549v7.145c0,0.277-0.138,0.552-0.514,0.552
				c-0.479,0-0.516-0.307-0.516-0.552c0-3.744-2.603-6.491-5.891-6.491c-3.901,0-6.334,2.471-6.334,10.229
				c0,7.766,2.434,10.242,6.334,10.242c3.288,0,5.891-2.743,5.891-6.497c0-0.241,0.036-0.543,0.516-0.543
				c0.376,0,0.514,0.276,0.514,0.543v7.154c0,0.164,0,0.577-0.55,0.577c-0.443,0-0.479-0.413-0.479-0.619
				c0-0.45-0.275-1.27-0.684-1.609c-1.3,1.333-2.635,2.365-5.474,2.365C95.631,43.667,91.382,39.001,91.382,32.055z"/>
			<path d="M118.786,41.991c0.234,0,0.503,0.231,0.503,0.609c0,0.376-0.269,0.588-0.503,0.588c-0.349,0-0.688-0.172-3.498-0.172
				h-0.41c-2.809,0-3.148,0.172-3.492,0.172c-0.244,0-0.518-0.212-0.518-0.588c0-0.378,0.274-0.609,0.518-0.609
				c0.344,0,0.684,0.03,2.325,0.03V22.093c-1.642,0-1.981,0.035-2.325,0.035c-0.244,0-0.518-0.24-0.518-0.623
				c0-0.333,0.274-0.573,0.518-0.573c0.344,0,0.684,0.171,3.492,0.171h0.41c2.81,0,3.149-0.171,3.498-0.171
				c0.234,0,0.503,0.24,0.503,0.573c0,0.383-0.269,0.623-0.503,0.623c-0.349,0-0.688-0.035-2.338-0.035v19.928
				C118.098,42.022,118.437,41.991,118.786,41.991z"/>
			<path d="M126.554,42.022c1.643,0,1.985-0.03,2.33-0.03c0.274,0,0.51,0.231,0.51,0.609c0,0.376-0.236,0.588-0.51,0.588
				c-0.306,0-0.62-0.141-2.979-0.172c-2.328,0.03-2.639,0.172-2.944,0.172c-0.283,0-0.519-0.212-0.519-0.588
				c0-0.378,0.236-0.609,0.519-0.609c0.341,0,0.681,0.03,2.325,0.03V22.093c-1.644,0-1.984,0.035-2.325,0.035
				c-0.283,0-0.519-0.24-0.519-0.623c0-0.333,0.236-0.573,0.519-0.573c0.305,0,0.616,0.139,2.944,0.171
				c0.516,0,1.029-0.066,1.37-0.066c0.513,0,0.679,0.31,1.303,1.265l9.625,15.428V22.093c-1.678,0-2.018,0.035-2.362,0.035
				c-0.242,0-0.525-0.24-0.525-0.623c0-0.333,0.284-0.573,0.525-0.573c0.344,0,0.65,0.139,2.972,0.171
				c2.333-0.033,2.671-0.171,2.982-0.171c0.238,0,0.516,0.24,0.516,0.573c0,0.383-0.278,0.623-0.516,0.623
				c-0.343,0-0.686-0.035-2.368-0.035v20.479c0,0.718-0.169,0.959-0.475,0.959c-0.376,0-0.51-0.24-0.789-0.691l-11.609-18.677
				V42.022z"/>
			<path d="M161.216,41.578v1.058c0,0.341-0.268,0.585-0.516,0.585c-0.307,0-1.364-0.136-1.912-0.136
				c-1.314,0-8.051-0.068-9.363-0.068c-2.798,0-3.14,0.172-3.48,0.172c-0.246,0-0.521-0.212-0.521-0.588
				c0-0.378,0.275-0.609,0.521-0.609c0.341,0,0.682,0.03,2.32,0.03V22.093c-1.638,0-1.979,0.035-2.32,0.035
				c-0.246,0-0.521-0.24-0.521-0.623c0-0.333,0.275-0.573,0.521-0.573c0.341,0,0.682,0.171,3.48,0.171
				c1.515,0,7.476-0.066,8.499-0.066c0.549,0,1.606-0.141,1.919-0.141c0.236,0,0.515,0.24,0.515,0.608v1.037
				c0,1.415,0.171,3.812,0.171,4.155c0,0.277-0.171,0.52-0.553,0.52c-0.367,0-0.574-0.244-0.574-0.52
				c0-2.74-0.857-4.395-2.816-4.395h-5.58v8.657h3.361c1.089,0,1.818-0.891,1.818-2.642c0-0.274,0.128-0.514,0.471-0.514
				c0.309,0,0.451,0.239,0.451,0.514c0,0.311-0.073,0.958-0.073,3.26c0,2.306,0.073,2.959,0.073,3.266
				c0,0.243-0.143,0.516-0.451,0.516c-0.342,0-0.471-0.273-0.471-0.516c0-1.759-0.729-2.652-1.818-2.652h-3.361v9.625h6.444
				c1.952,0,2.806-1.651,2.806-4.399c0-0.276,0.201-0.515,0.589-0.515c0.371,0,0.548,0.239,0.548,0.515
				C161.393,37.761,161.216,40.166,161.216,41.578z"/>
			<path d="M179.642,27.218c-0.378,0-0.543-0.244-0.543-0.52c0-2.74-0.856-4.395-2.852-4.395h-3.315v19.719
				c1.678,0,2.013-0.03,2.362-0.03c0.242,0,0.516,0.231,0.516,0.609c0,0.376-0.274,0.588-0.516,0.588
				c-0.349,0-0.684-0.172-3.495-0.172h-0.41c-2.811,0-3.151,0.172-3.492,0.172c-0.274,0-0.52-0.212-0.52-0.588
				c0-0.378,0.246-0.609,0.52-0.609c0.341,0,0.681,0.03,2.326,0.03V22.303h-3.286c-1.99,0-2.847,1.655-2.847,4.395
				c0,0.277-0.202,0.52-0.581,0.52c-0.339,0-0.508-0.244-0.508-0.52c0-0.343,0.169-2.74,0.169-4.155v-1.037
				c0-0.367,0.235-0.608,0.516-0.608c0.306,0,1.366,0.141,1.877,0.141l5.341,0.066h1.338l5.349-0.066
				c0.551,0,1.603-0.141,1.919-0.141c0.265,0,0.508,0.24,0.508,0.608v1.037c0,1.415,0.176,3.812,0.176,4.155
				C180.192,26.974,180.016,27.218,179.642,27.218z"/>
			<path d="M198.141,41.578v1.058c0,0.341-0.28,0.585-0.522,0.585c-0.303,0-1.369-0.136-1.911-0.136
				c-1.306,0-8.049-0.068-9.358-0.068c-2.807,0-3.144,0.172-3.487,0.172c-0.24,0-0.519-0.212-0.519-0.588
				c0-0.378,0.279-0.609,0.519-0.609c0.343,0,0.68,0.03,2.325,0.03V22.093c-1.646,0-1.983,0.035-2.325,0.035
				c-0.24,0-0.519-0.24-0.519-0.623c0-0.333,0.279-0.573,0.519-0.573c0.343,0,0.68,0.171,3.487,0.171
				c1.507,0,7.475-0.066,8.501-0.066c0.549,0,1.604-0.141,1.914-0.141c0.24,0,0.517,0.24,0.517,0.608v1.037
				c0,1.415,0.17,3.812,0.17,4.155c0,0.277-0.17,0.52-0.549,0.52c-0.369,0-0.58-0.244-0.58-0.52c0-2.74-0.862-4.395-2.814-4.395
				h-5.578v8.657h3.354c1.096,0,1.817-0.891,1.817-2.642c0-0.274,0.136-0.514,0.479-0.514c0.311,0,0.45,0.239,0.45,0.514
				c0,0.311-0.074,0.958-0.074,3.26c0,2.306,0.074,2.959,0.074,3.266c0,0.243-0.138,0.516-0.45,0.516
				c-0.343,0-0.479-0.273-0.479-0.516c0-1.759-0.721-2.652-1.817-2.652h-3.354v9.625h6.444c1.949,0,2.803-1.651,2.803-4.399
				c0-0.276,0.201-0.515,0.587-0.515c0.376,0,0.546,0.239,0.546,0.515C198.31,37.761,198.141,40.166,198.141,41.578z"/>
			<path d="M201.113,32.055c0-6.935,4.249-11.571,9.216-11.571c2.811,0,4.245,1.103,5.477,2.335c0.31-0.277,0.69-0.993,0.69-1.613
				c0-0.206,0.038-0.583,0.48-0.583c0.548,0,0.548,0.377,0.548,0.549v7.145c0,0.277-0.142,0.552-0.515,0.552
				c-0.474,0-0.513-0.307-0.513-0.552c0-3.744-2.603-6.491-5.891-6.491c-3.911,0-6.341,2.471-6.341,10.229
				c0,7.766,2.43,10.242,6.341,10.242c3.289,0,5.891-2.743,5.891-6.497c0-0.241,0.038-0.543,0.513-0.543
				c0.373,0,0.515,0.276,0.515,0.543v7.154c0,0.164,0,0.577-0.548,0.577c-0.442,0-0.48-0.413-0.48-0.619
				c0-0.45-0.273-1.27-0.69-1.609c-1.299,1.333-2.635,2.365-5.477,2.365C205.362,43.667,201.113,39.001,201.113,32.055z"/>
			<path d="M240.787,41.991c0.269,0,0.513,0.231,0.513,0.609c0,0.376-0.244,0.588-0.513,0.588c-0.343,0-0.684-0.172-3.499-0.172
				h-0.409c-2.804,0-3.142,0.172-3.491,0.172c-0.232,0-0.518-0.212-0.518-0.588c0-0.378,0.286-0.609,0.518-0.609
				c0.349,0,0.687,0.03,2.261,0.03l-2.124-5.88h-8.392l-2.225,5.88h0.246c1.635,0,1.774-0.03,2.118-0.03
				c0.239,0,0.51,0.231,0.51,0.609c0,0.376-0.271,0.588-0.51,0.588c-0.344,0-0.483-0.172-2.88-0.172h-0.167
				c-2.44,0-2.571,0.172-2.911,0.172c-0.237,0-0.517-0.212-0.517-0.588c0-0.378,0.28-0.609,0.517-0.609
				c0.341,0,0.471,0.03,2.023,0.03h0.21l8.037-21.226c0.106-0.276,0.211-0.379,0.621-0.379c0.376,0,0.477,0.139,0.58,0.379
				l7.742,21.226C240.103,42.022,240.445,41.991,240.787,41.991z M229.416,24.782l-3.801,10.129h7.47L229.416,24.782z"/>
			<path d="M95.449,68.09c1.6,0,1.928-0.035,2.266-0.035c0.269,0,0.498,0.241,0.498,0.609c0,0.384-0.229,0.586-0.498,0.586
				c-0.305,0-0.603-0.136-2.901-0.17c-2.273,0.035-2.566,0.17-2.865,0.17c-0.265,0-0.503-0.202-0.503-0.586
				c0-0.368,0.239-0.609,0.503-0.609c0.33,0,0.668,0.035,2.263,0.035V48.159c-1.595,0-1.933,0.038-2.263,0.038
				c-0.265,0-0.503-0.233-0.503-0.61c0-0.356,0.239-0.585,0.503-0.585c0.298,0,0.591,0.135,2.865,0.172
				c0.503,0,0.996-0.072,1.328-0.072c0.504,0,0.673,0.313,1.267,1.27l9.369,15.426V48.159c-1.639,0-1.972,0.038-2.305,0.038
				c-0.224,0-0.496-0.233-0.496-0.61c0-0.356,0.272-0.585,0.496-0.585c0.333,0,0.636,0.135,2.907,0.172
				c2.261-0.037,2.594-0.172,2.892-0.172c0.236,0,0.497,0.229,0.497,0.585c0,0.377-0.261,0.61-0.497,0.61
				c-0.333,0-0.662-0.038-2.298-0.038v20.476c0,0.724-0.166,0.962-0.463,0.962c-0.365,0-0.505-0.238-0.764-0.687L95.449,50.229
				V68.09z"/>
			<path d="M132.302,68.055c0.271,0,0.499,0.241,0.499,0.609c0,0.384-0.227,0.586-0.499,0.586c-0.333,0-0.664-0.17-3.397-0.17
				h-0.401c-2.733,0-3.064,0.17-3.406,0.17c-0.225,0-0.493-0.202-0.493-0.586c0-0.368,0.268-0.609,0.493-0.609
				c0.342,0,0.673,0.035,2.203,0.035l-2.064-5.877h-8.167l-2.163,5.877h0.229c1.601,0,1.737-0.035,2.071-0.035
				c0.23,0,0.496,0.241,0.496,0.609c0,0.384-0.267,0.586-0.496,0.586c-0.334,0-0.47-0.17-2.803-0.17h-0.165
				c-2.367,0-2.497,0.17-2.835,0.17c-0.227,0-0.497-0.202-0.497-0.586c0-0.368,0.27-0.609,0.497-0.609
				c0.338,0,0.468,0.035,1.97,0.035h0.201l7.83-21.23c0.099-0.272,0.201-0.375,0.605-0.375c0.365,0,0.461,0.134,0.557,0.375
				l7.531,21.23C131.638,68.09,131.969,68.055,132.302,68.055z M121.243,50.847l-3.703,10.135h7.261L121.243,50.847z"/>
			<path d="M132.604,58.124c0-6.942,4.133-11.571,8.967-11.571c2.73,0,4.134,1.09,5.325,2.329c0.303-0.275,0.669-0.999,0.669-1.608
				c0-0.203,0.037-0.585,0.469-0.585c0.533,0,0.533,0.382,0.533,0.541v7.153c0,0.272-0.135,0.546-0.502,0.546
				c-0.463,0-0.5-0.3-0.5-0.546c0-3.754-2.527-6.499-5.728-6.499c-3.795,0-6.167,2.481-6.167,10.24
				c0,7.763,2.372,10.244,6.167,10.244c3.201,0,5.728-2.754,5.728-6.5c0-0.239,0.037-0.552,0.5-0.552
				c0.367,0,0.502,0.276,0.502,0.552v7.147c0,0.171,0,0.581-0.533,0.581c-0.432,0-0.469-0.409-0.469-0.621
				c0-0.449-0.266-1.26-0.669-1.609c-1.261,1.346-2.556,2.372-5.325,2.372C136.738,69.739,132.604,65.07,132.604,58.124z"/>
			<path d="M159.263,68.055c0.236,0,0.5,0.241,0.5,0.609c0,0.384-0.265,0.586-0.5,0.586c-0.33,0-0.673-0.17-3.403-0.17h-0.393
				c-2.737,0-3.073,0.17-3.401,0.17c-0.231,0-0.497-0.202-0.497-0.586c0-0.368,0.266-0.609,0.497-0.609
				c0.328,0,0.664,0.035,2.272,0.035V48.159c-1.607,0-1.944,0.038-2.272,0.038c-0.231,0-0.497-0.233-0.497-0.61
				c0-0.356,0.266-0.585,0.497-0.585c0.328,0,0.664,0.172,3.401,0.172h0.393c2.73,0,3.073-0.172,3.403-0.172
				c0.236,0,0.5,0.229,0.5,0.585c0,0.377-0.265,0.61-0.5,0.61c-0.33,0-0.673-0.038-2.268-0.038V68.09
				C158.591,68.09,158.933,68.055,159.263,68.055z"/>
			<path d="M172.129,69.739c-4.971,0-9.099-4.669-9.099-11.614c0-6.942,4.128-11.571,9.099-11.571c4.963,0,9.094,4.629,9.094,11.571
				C181.223,65.07,177.092,69.739,172.129,69.739z M172.129,47.884c-4.005,0-6.042,2.481-6.042,10.24
				c0,7.763,2.037,10.244,6.042,10.244c3.992,0,6.027-2.481,6.027-10.244C178.156,50.365,176.12,47.884,172.129,47.884z"/>
			<path d="M188.219,68.09c1.595,0,1.931-0.035,2.27-0.035c0.263,0,0.501,0.241,0.501,0.609c0,0.384-0.238,0.586-0.501,0.586
				c-0.299,0-0.601-0.136-2.904-0.17c-2.258,0.035-2.558,0.17-2.863,0.17c-0.268,0-0.494-0.202-0.494-0.586
				c0-0.368,0.226-0.609,0.494-0.609c0.332,0,0.665,0.035,2.258,0.035V48.159c-1.592,0-1.926,0.038-2.258,0.038
				c-0.268,0-0.494-0.233-0.494-0.61c0-0.356,0.226-0.585,0.494-0.585c0.305,0,0.606,0.135,2.863,0.172
				c0.503,0,1.002-0.072,1.338-0.072c0.5,0,0.67,0.313,1.267,1.27l9.358,15.426V48.159c-1.631,0-1.966,0.038-2.295,0.038
				c-0.235,0-0.499-0.233-0.499-0.61c0-0.356,0.264-0.585,0.499-0.585c0.329,0,0.629,0.135,2.897,0.172
				c2.266-0.037,2.6-0.172,2.897-0.172c0.231,0,0.498,0.229,0.498,0.585c0,0.377-0.267,0.61-0.498,0.61
				c-0.334,0-0.667-0.038-2.291-0.038v20.476c0,0.724-0.169,0.962-0.472,0.962c-0.37,0-0.5-0.238-0.768-0.687l-11.298-18.681V68.09z
				"/>
			<path d="M225.079,68.055c0.261,0,0.506,0.241,0.506,0.609c0,0.384-0.244,0.586-0.506,0.586c-0.337,0-0.67-0.17-3.4-0.17h-0.406
				c-2.728,0-3.062,0.17-3.391,0.17c-0.24,0-0.503-0.202-0.503-0.586c0-0.368,0.263-0.609,0.503-0.609
				c0.329,0,0.664,0.035,2.199,0.035l-2.067-5.877h-8.166l-2.169,5.877h0.235c1.597,0,1.737-0.035,2.067-0.035
				c0.231,0,0.503,0.241,0.503,0.609c0,0.384-0.272,0.586-0.503,0.586c-0.33,0-0.469-0.17-2.797-0.17h-0.163
				c-2.371,0-2.499,0.17-2.836,0.17c-0.24,0-0.507-0.202-0.507-0.586c0-0.368,0.267-0.609,0.507-0.609
				c0.336,0,0.465,0.035,1.961,0.035h0.198l7.836-21.23c0.104-0.272,0.196-0.375,0.598-0.375c0.37,0,0.468,0.134,0.565,0.375
				l7.534,21.23C224.409,68.09,224.742,68.055,225.079,68.055z M214.009,50.847l-3.695,10.135h7.267L214.009,50.847z"/>
			<path d="M237.376,67.885c1.895,0,2.728-1.65,2.728-4.4c0-0.275,0.203-0.515,0.57-0.515c0.359,0,0.528,0.24,0.528,0.515
				c0,0.348-0.169,2.75-0.169,4.158v1.069c0,0.336-0.262,0.577-0.49,0.577c-0.343,0-1.174-0.137-1.87-0.137
				c-2.937,0-7.638-0.072-8.83-0.072c-2.738,0-3.073,0.17-3.404,0.17c-0.226,0-0.497-0.202-0.497-0.586
				c0-0.368,0.271-0.609,0.497-0.609c0.331,0,0.665,0.035,2.271,0.035V48.159c-1.606,0-1.94,0.038-2.271,0.038
				c-0.226,0-0.497-0.233-0.497-0.61c0-0.356,0.271-0.585,0.497-0.585c0.331,0,0.665,0.172,3.404,0.172h0.398
				c2.734,0,3.067-0.172,3.4-0.172c0.237,0,0.5,0.229,0.5,0.585c0,0.377-0.262,0.61-0.5,0.61c-0.334,0-0.666-0.038-2.261-0.038
				v19.726H237.376z"/>
		</g>
	</g>
	<g>
		<g>
			<circle cx="47.581" cy="31.379" r="6.85"/>
		</g>
		<g>
			<circle cx="34.551" cy="40.845" r="6.85"/>
		</g>
		<g>
			<circle cx="39.527" cy="56.162" r="6.85"/>
		</g>
		<g>
			<circle cx="55.633" cy="56.162" r="6.85"/>
		</g>
		<g>
			<circle cx="60.61" cy="40.845" r="6.85"/>
		</g>
		<path d="M47.581,69.739c-13.62,0-24.661-11.041-24.661-24.661c0-13.62,11.041-24.661,24.661-24.661
			c6.81,0,12.975,2.76,17.438,7.223l5.813-5.813c-5.95-5.95-14.171-9.63-23.251-9.63c-18.16,0-32.881,14.721-32.881,32.881
			c0,18.16,14.721,32.881,32.881,32.881c9.08,0,17.3-3.68,23.251-9.63l-5.813-5.813C60.556,66.979,54.391,69.739,47.581,69.739z"/>
		<g>
			<circle cx="47.581" cy="45.078" r="3.425"/>
		</g>
	</g>
	<g>
		<path d="M104.469,91.613V79.089h-0.056l-3.834,12.524h-1.177l-3.852-12.524h-0.057v12.524h-1.368V77.912h2.354l3.492,11.083h0.038
			l3.435-11.083h2.39v13.701H104.469z"/>
		<path d="M117.011,77.912v1.29h-6.7v4.594h4.765v1.292h-4.765v5.235h7.08v1.291h-8.596V77.912H117.011z M115.605,74.495
			l-2.485,2.696h-1.273l1.69-2.696H115.605z"/>
		<path d="M120.352,91.613h-1.746l4.1-7.153l-3.834-6.547h1.746l2.943,5.03l2.885-5.03h1.746l-3.739,6.547l4.176,7.153h-1.745
			l-3.304-5.653L120.352,91.613z"/>
		<path d="M132.801,77.912v13.701h-1.517V77.912H132.801z"/>
		<path d="M145.497,87.516c-0.607,2.541-2.011,4.288-4.821,4.288c-3.074,0-5.237-2.239-5.237-7.04c0-4.46,1.936-7.041,5.237-7.041
			c2.545,0,4.025,1.48,4.633,3.985l-1.405,0.418c-0.493-1.936-1.368-3.114-3.417-3.114c-1.973,0-3.53,1.823-3.53,5.751
			c0,3.967,1.557,5.75,3.835,5.75c2.106,0,2.922-1.594,3.34-3.263L145.497,87.516z"/>
		<path d="M152.557,77.722c3.36,0,5.352,2.468,5.352,7.041c0,4.574-1.992,7.04-5.352,7.04c-3.359,0-5.351-2.466-5.351-7.04
			C147.206,80.191,149.198,77.722,152.557,77.722z M152.557,90.513c2.41,0,3.835-1.859,3.835-5.75c0-3.89-1.424-5.751-3.835-5.751
			c-2.409,0-3.832,1.862-3.832,5.751C148.725,88.654,150.148,90.513,152.557,90.513z"/>
	</g>
</g>
</svg>
