<?xml version="1.0" encoding="utf-8"?>
<!-- Generator: Adobe Illustrator 17.0.0, SVG Export Plug-In . SVG Version: 6.00 Build 0)  -->
<!DOCTYPE svg PUBLIC "-//W3C//DTD SVG 1.1//EN" "http://www.w3.org/Graphics/SVG/1.1/DTD/svg11.dtd">
<svg version="1.1" id="Layer_1" xmlns="http://www.w3.org/2000/svg" xmlns:xlink="http://www.w3.org/1999/xlink" x="0px" y="0px"
	 width="397px" height="76px" viewBox="0 0 397 76" enable-background="new 0 0 397 76" xml:space="preserve">
<g>
	<g>
		<path d="M48.866,59.361V59.35c0-1.44,1.081-2.62,2.615-2.62c0.933,0,1.496,0.325,1.978,0.787l-0.568,0.658
			c-0.407-0.378-0.84-0.628-1.42-0.628c-0.967,0-1.669,0.794-1.669,1.789v0.016c0,0.988,0.703,1.801,1.669,1.801
			c0.624,0,1.024-0.254,1.456-0.66l0.573,0.581c-0.528,0.546-1.109,0.895-2.057,0.895C49.966,61.967,48.866,60.819,48.866,59.361"/>
		<rect x="54.484" y="56.814" width="0.891" height="5.068"/>
		<path d="M56.648,59.734v-2.92h0.891v2.882c0,0.939,0.485,1.448,1.281,1.448c0.788,0,1.273-0.477,1.273-1.409v-2.92h0.892v2.873
			c0,1.515-0.855,2.273-2.179,2.273C57.486,61.959,56.648,61.201,56.648,59.734"/>
		<path d="M62.208,56.813h1.887c1.596,0,2.694,1.096,2.694,2.521v0.016c0,1.424-1.098,2.532-2.694,2.532h-1.887V56.813z
			 M64.096,61.072c1.068,0,1.759-0.718,1.759-1.711V59.35c0-0.995-0.691-1.725-1.759-1.725h-0.997v3.447H64.096z"/>
		<path d="M69.315,56.776h0.828l2.23,5.105h-0.944l-0.513-1.22H68.52l-0.521,1.22h-0.911L69.315,56.776z M70.59,59.867l-0.874-2.027
			l-0.869,2.027H70.59z"/>
		<path d="M73.239,56.813h1.891c1.589,0,2.69,1.096,2.69,2.521v0.016c0,1.424-1.101,2.532-2.69,2.532h-1.891V56.813z M75.13,61.072
			c1.063,0,1.757-0.718,1.757-1.711V59.35c0-0.995-0.694-1.725-1.757-1.725h-1v3.447H75.13z"/>
		<path d="M81.073,56.813h1.889c1.593,0,2.692,1.096,2.692,2.521v0.016c0,1.424-1.1,2.532-2.692,2.532h-1.889V56.813z
			 M82.962,61.072c1.065,0,1.757-0.718,1.757-1.711V59.35c0-0.995-0.692-1.725-1.757-1.725h-0.998v3.447H82.962z"/>
		<polygon points="86.734,56.813 90.493,56.813 90.493,57.61 87.625,57.61 87.625,58.93 90.165,58.93 90.165,59.725 87.625,59.725 
			87.625,61.084 90.526,61.084 90.526,61.881 86.734,61.881 		"/>
		<polygon points="93.757,56.813 94.704,56.813 96.245,59.209 97.787,56.813 98.736,56.813 98.736,61.881 97.849,61.881 
			97.849,58.249 96.245,60.635 96.217,60.635 94.635,58.264 94.635,61.881 93.757,61.881 		"/>
		<path d="M100.04,56.813h3.756v0.797h-2.863v1.32h2.536v0.792h-2.536v1.363h2.899v0.797h-3.792V56.813z M102.16,55.207l0.797,0.355
			l-0.885,0.833h-0.679L102.16,55.207z"/>
		<polygon points="106.352,59.303 104.579,56.813 105.628,56.813 106.888,58.63 108.155,56.813 109.177,56.813 107.41,59.292 
			109.249,61.881 108.199,61.881 106.867,59.964 105.527,61.881 104.507,61.881 		"/>
		<rect x="110.217" y="56.814" width="0.894" height="5.068"/>
		<path d="M112.239,59.361V59.35c0-1.44,1.08-2.62,2.613-2.62c0.933,0,1.498,0.325,1.983,0.787l-0.57,0.658
			c-0.407-0.378-0.842-0.628-1.421-0.628c-0.968,0-1.67,0.794-1.67,1.789v0.016c0,0.988,0.702,1.801,1.67,1.801
			c0.624,0,1.023-0.254,1.454-0.66l0.574,0.581c-0.527,0.546-1.108,0.895-2.057,0.895C113.337,61.967,112.239,60.819,112.239,59.361
			"/>
		<path d="M117.437,59.361V59.35c0-1.427,1.099-2.62,2.656-2.62c1.554,0,2.645,1.18,2.645,2.604v0.016
			c0,1.424-1.104,2.617-2.662,2.617C118.521,61.967,117.437,60.787,117.437,59.361 M121.8,59.361V59.35
			c0-0.985-0.717-1.804-1.724-1.804c-1.004,0-1.704,0.803-1.704,1.789v0.016c0,0.983,0.717,1.801,1.722,1.801
			C121.099,61.151,121.8,60.346,121.8,59.361"/>
		<path d="M27.591,49.569c-4.907,0-9.42-1.896-12.715-5.346c-3.257-3.408-5.052-8.036-5.052-13.023v-0.102
			c0-10.355,7.849-18.468,17.868-18.468c6.337,0,10.122,2.277,13.854,5.699l0.236,0.218l-2.3,2.361l-0.222-0.216
			c-4.629-4.476-8.469-5.077-11.619-5.077c-3.977,0-7.645,1.577-10.326,4.44c-2.683,2.857-4.157,6.744-4.157,10.945v0.099
			c0,8.683,6.385,15.487,14.534,15.487c4.558,0,7.992-1.559,11.864-5.377l0.221-0.217l2.204,2.143l-0.228,0.225
			C36.208,48.833,31.484,49.569,27.591,49.569"/>
		<path d="M60.89,49.001H48.866V13.197H60.89c11.014,0,19.008,7.487,19.008,17.803v0.099c0,4.933-1.879,9.454-5.296,12.735
			C71.127,47.169,66.258,49.001,60.89,49.001 M52.107,45.962h8.782c4.624,0,8.577-1.488,11.448-4.3
			c2.719-2.674,4.219-6.389,4.219-10.462v-0.102c0-4.061-1.5-7.788-4.224-10.492c-2.879-2.858-6.834-4.37-11.442-4.37h-8.782V45.962
			z"/>
		<polygon points="86.851,13.173 95.352,13.173 104.772,28.333 114.199,13.173 122.7,13.173 122.7,49.022 114.866,49.022 
			114.866,25.622 104.772,40.933 104.57,40.933 94.586,25.775 94.586,49.022 86.851,49.022 		"/>
		<polygon points="141.343,30.792 129.357,13.173 138.577,13.173 146.107,24.8 153.685,13.173 162.648,13.173 150.666,30.69 
			163.16,49.022 153.942,49.022 145.902,36.735 137.81,49.022 128.846,49.022 		"/>
	</g>
	<g>
		<g>
			<g>
				<path fill-rule="evenodd" clip-rule="evenodd" d="M230.5,24.05c0.582,0.025,1.212,0.004,1.81,0.01
					c0.117-0.17,0.096-0.476,0.203-0.656c0.155,0.059,0.107,0.3,0.092,0.455c-0.018,0.168-0.065,0.346-0.191,0.406
					c-0.104,0.047-0.26,0.014-0.396,0.01c-0.148-0.001-0.36,0.003-0.553,0.011c-0.323,0.017-0.595-0.026-0.623,0.261
					c-0.008,0.062,0.018,0.121,0.011,0.181c-0.048,0.358-0.457,0.554-0.826,0.555c-0.31,0.001-0.716-0.073-0.815-0.294
					c-0.05-0.106-0.015-0.308-0.092-0.373c-0.089-0.078-0.334,0.003-0.485,0.034c-0.851,0.17-1.659,0.232-2.567,0.329
					c-0.166,0.018-0.348,0.041-0.521,0.057c-0.18,0.018-0.381,0.013-0.519,0.055c-0.101,0.032-0.182,0.134-0.286,0.193
					c-0.1,0.059-0.197,0.114-0.338,0.125c0.162,0.025,0.373,0.004,0.553,0.01c-0.051,0.229-0.178,0.408-0.325,0.556
					c-0.13,0.124-0.367,0.323-0.546,0.373c-1.217,0.342-2.372-0.371-2.977-0.929c0.989,0,1.978,0,2.966,0
					c-0.215-0.081-0.652-0.144-0.724-0.373c-0.081-0.248,0.154-0.424,0.157-0.643c-0.373-0.397-0.562,0.422-0.972,0.351
					c-0.162-0.03-0.223-0.352-0.386-0.419c-0.181-0.073-0.516-0.07-0.782-0.103c-0.088-0.01-0.199-0.047-0.26-0.034
					c-0.117,0.027-0.161,0.229-0.339,0.229c-0.187,0-0.223-0.151-0.317-0.319c-0.698-0.055-1.443-0.106-2.092-0.226
					c-0.64-0.117-1.18-0.375-1.323-0.996c0.084,0.046,0.125,0.162,0.181,0.25c0.075,0.118,0.155,0.244,0.282,0.308
					c0.178,0.087,0.461,0.105,0.734,0.134c1.312,0.136,2.662,0.242,4.006,0.328c0.559,0.036,1.136,0.073,1.653-0.012
					c-0.086-0.698-0.359-1.306-0.556-1.934c0.648,0.042,0.868,0.459,1.076,0.973c0.058,0.141,0.128,0.44,0.227,0.486
					c0.21,0.102,0.614-0.084,0.768-0.148c0.253-0.103,0.454-0.195,0.671-0.292c0.42-0.193,0.948-0.377,1.368-0.545
					c0.68-0.27,1.387-0.545,2.15-0.734c0.268-0.068,0.557-0.136,0.858-0.137c0.438-0.002,0.757,0.094,1.02,0.248
					c0.288,0.17,0.423,0.384,0.575,0.693c0.097,0.188,0.318,0.472,0.192,0.826c-0.088,0.248-0.484,0.392-0.757,0.474
					C231.144,23.902,230.819,23.956,230.5,24.05z M230.817,22.047c-0.081,0.032-0.189,0.037-0.27,0.066
					c-0.007,0.135-0.02,0.322-0.012,0.43c0.094-0.055,0.201-0.099,0.307-0.146C230.826,22.286,230.87,22.12,230.817,22.047z
					 M230.907,22.385c0.223,0,0.446,0,0.669,0c-0.042-0.12-0.102-0.22-0.148-0.338c-0.173,0-0.347,0-0.521,0
					C230.907,22.16,230.907,22.273,230.907,22.385z M231.657,22.363c0.096,0.023,0.191,0.049,0.282,0.079
					c-0.05-0.124-0.121-0.222-0.172-0.34c-0.091-0.008-0.204-0.059-0.282-0.044C231.555,22.147,231.592,22.269,231.657,22.363z
					 M229.765,22.397c0.14,0.018,0.058-0.185,0.079-0.284C229.705,22.096,229.789,22.297,229.765,22.397z M230.195,22.16
					c-0.034,0.088-0.052,0.189-0.078,0.282c0.12,0.017,0.233,0.045,0.35,0.068c-0.009-0.135,0.023-0.309-0.035-0.396
					C230.351,22.127,230.285,22.153,230.195,22.16z M229.641,22.442c0.111,0,0.073-0.204,0.068-0.282
					C229.571,22.135,229.639,22.366,229.641,22.442z M229.494,22.476c0.135,0.022,0.088-0.196,0.077-0.283
					C229.444,22.186,229.511,22.37,229.494,22.476z M229.369,22.521c0.117,0.007,0.078-0.198,0.067-0.284
					C229.315,22.228,229.359,22.438,229.369,22.521z M229.223,22.554c0.036,0.007,0.051-0.007,0.079-0.011
					c0.018-0.071,0.009-0.171,0.011-0.259C229.177,22.271,229.237,22.448,229.223,22.554z M228.124,22.895
					c-0.014,0.23-0.014,0.48,0.056,0.588c0.104,0.034,0.193-0.041,0.238-0.103c-0.058-0.352,0.01-0.732,0.035-1.029
					C228.149,22.256,228.144,22.605,228.124,22.895z M229.098,22.602c0.125,0.007,0.063-0.169,0.079-0.272
					C229.05,22.313,229.087,22.517,229.098,22.602z M228.963,22.646c0.121,0.003,0.067-0.166,0.077-0.271
					C228.914,22.359,228.954,22.566,228.963,22.646z M228.905,22.421c-0.109-0.039-0.081,0.158-0.091,0.259
					C228.954,22.703,228.892,22.523,228.905,22.421z M228.69,22.724c0.027,0.004,0.024-0.021,0.057-0.012
					c0.035-0.05,0.026-0.203,0.022-0.259C228.652,22.448,228.682,22.645,228.69,22.724z M228.542,22.759
					c0.038,0.007,0.054-0.008,0.08-0.01c0.012-0.071,0.023-0.196,0.012-0.249C228.513,22.496,228.563,22.665,228.542,22.759z
					 M227.966,22.724c-0.11-0.044-0.091,0.133-0.091,0.238C227.998,22.977,227.957,22.827,227.966,22.724z M227.738,22.997
					c0.037,0.006,0.055-0.008,0.08-0.011c0.013-0.067,0.013-0.146,0.012-0.226C227.707,22.744,227.748,22.895,227.738,22.997z
					 M227.604,23.043c0.125,0.017,0.083-0.137,0.089-0.239C227.567,22.787,227.611,22.94,227.604,23.043z M227.479,23.088
					c0.112,0.005,0.072-0.139,0.079-0.238C227.436,22.826,227.464,23.009,227.479,23.088z M227.333,23.121
					c0.127,0.023,0.081-0.129,0.092-0.226C227.293,22.872,227.341,23.025,227.333,23.121z M227.209,23.167
					c0.032-0.004,0.057-0.018,0.078-0.034c0-0.064,0-0.128,0-0.192C227.162,22.91,227.192,23.092,227.209,23.167z M227.06,23.201
					c0.036,0.007,0.053-0.009,0.078-0.013c0.021-0.049,0.009-0.133,0.013-0.203C227.024,22.958,227.07,23.105,227.06,23.201z
					 M226.935,23.245c0.11,0.012,0.073-0.12,0.081-0.214C226.891,22.998,226.919,23.174,226.935,23.245z M226.789,23.28
					c0.024,0,0.045,0,0.066,0c0.043-0.035,0.018-0.136,0.024-0.203C226.75,23.045,226.798,23.19,226.789,23.28z M226.653,23.144
					c0.006,0.059-0.013,0.141,0.013,0.183c0.039,0.004,0.053-0.014,0.079-0.023C226.754,23.198,226.75,23.047,226.653,23.144z
					 M226.325,23.427c0.04,0.005,0.056-0.013,0.079-0.024c-0.005-0.059,0.013-0.14-0.012-0.18
					C226.283,23.211,226.313,23.35,226.325,23.427z M226.2,23.471c0.028,0.006,0.024-0.019,0.056-0.009
					c0.02-0.044,0.02-0.151,0-0.195C226.139,23.244,226.177,23.417,226.2,23.471z M226.054,23.506
					c0.036,0.006,0.053-0.007,0.08-0.01c-0.003-0.063,0.006-0.139-0.013-0.181C226.006,23.291,226.044,23.438,226.054,23.506z
					 M225.916,23.551c0.041,0.006,0.058-0.013,0.081-0.022c0.004-0.066-0.005-0.117-0.011-0.172
					C225.869,23.336,225.911,23.483,225.916,23.551z M225.78,23.584c0.024,0,0.047,0,0.071,0c0.029-0.051-0.003-0.123,0-0.181
					C225.724,23.387,225.773,23.504,225.78,23.584z M225.646,23.63c0.037,0.007,0.054-0.007,0.077-0.012
					c0.019-0.044-0.011-0.106-0.01-0.168C225.583,23.43,225.634,23.555,225.646,23.63z M225.487,23.517
					c0.001,0.063,0.015,0.114,0.035,0.16c0.043,0.004,0.052-0.024,0.078-0.036c-0.009-0.047-0.026-0.087-0.023-0.146
					C225.532,23.488,225.512,23.504,225.487,23.517z M225.376,23.71c0.042,0.004,0.071-0.002,0.089-0.022
					c-0.016-0.046-0.016-0.105-0.034-0.148C225.31,23.519,225.364,23.647,225.376,23.71z M225.238,23.754
					c0.046,0.007,0.066-0.009,0.091-0.023c-0.011-0.05-0.02-0.101-0.033-0.147C225.173,23.565,225.228,23.693,225.238,23.754z
					 M225.114,23.8c0.035,0.007,0.034-0.018,0.069-0.011c0.019-0.05-0.017-0.104-0.024-0.159
					C225.035,23.604,225.087,23.759,225.114,23.8z M224.345,25.146c0.605,0.129,0.627-0.955,0.023-0.836
					C223.959,24.389,223.987,25.07,224.345,25.146z M230.319,25.021c0.463,0.089,0.483-0.748,0.011-0.656
					C230.012,24.427,230.021,24.965,230.319,25.021z"/>
				<path fill-rule="evenodd" clip-rule="evenodd" d="M228.406,22.397c-0.071,0.27-0.083,0.643-0.045,0.959
					c-0.043,0.035-0.081,0.069-0.158,0.07c-0.044-0.33-0.055-0.765,0.079-1.006C228.325,22.413,228.35,22.387,228.406,22.397z"/>
				<path fill-rule="evenodd" clip-rule="evenodd" d="M213.357,28.837c-0.186,0-0.371,0-0.554,0
					c-0.278-0.533-0.562-1.055-0.828-1.597c0.184-0.027,0.404-0.082,0.568-0.089C212.812,27.712,213.104,28.256,213.357,28.837z"/>
				<path fill-rule="evenodd" clip-rule="evenodd" d="M216.061,27.24c0.013,0.055-0.066,0.119-0.112,0.182
					c-0.324,0.427-0.658,0.906-0.986,1.336c-0.14-0.043-0.286-0.083-0.429-0.127c0.307-0.508,0.65-0.985,0.963-1.49
					C215.677,27.178,215.881,27.199,216.061,27.24z"/>
				<path fill-rule="evenodd" clip-rule="evenodd" d="M229.436,27.386c0.012,0,0.024,0,0.033,0c0.047,0.223-0.061,0.612,0,0.804
					c0.02,0.056,0.075,0.07,0.114,0.091c-0.115,0.311,0.151,0.583,0.269,0.802c0.073,0.018,0.172,0.012,0.253,0.024
					c0.016,0.046,0.007,0.122,0.021,0.168c0.087,0.015,0.183,0.022,0.272,0.035c0.043,0.205-0.085,0.655,0.077,0.76
					c0.074,0.044,0.29,0.01,0.421,0.01c0.429,0,0.961,0,1.335,0c0.019,2.254,0.008,4.538,0.021,6.8
					c-0.938-0.213-1.862-0.439-2.737-0.713c-0.263-0.509-0.844-0.782-1.518-0.95c-0.607-0.155-1.263-0.262-1.911-0.238
					c-0.059,0.002-0.138,0.025-0.193,0.01c-0.125-0.032-0.143-0.301-0.294-0.191c0.015-1.586-0.031-3.111-0.023-4.696
					c0.985,0,1.969,0,2.954,0c0-0.263,0-0.528,0-0.792c0.081-0.012,0.171-0.017,0.25-0.035c0.025-0.051,0.008-0.147,0.032-0.204
					c0.291,0.029,0.445-0.258,0.487-0.509c0.011-0.074-0.026-0.144-0.013-0.205c0.015-0.062,0.119-0.109,0.136-0.191
					C229.48,27.917,229.375,27.625,229.436,27.386z"/>
				<path fill-rule="evenodd" clip-rule="evenodd" d="M211.468,29.446c-0.049,0.054-0.114,0.091-0.181,0.125
					c-0.773-0.278-1.568-0.534-2.343-0.814c0.008-0.059,0.126-0.162,0.169-0.182C209.904,28.86,210.685,29.155,211.468,29.446z"/>
				<path fill-rule="evenodd" clip-rule="evenodd" d="M218.485,30.081c0.048,0.044,0.099,0.146,0.099,0.203
					c-0.857,0.018-1.691,0.065-2.544,0.09c0.011-0.07,0.026-0.136,0.046-0.204C216.892,30.149,217.681,30.108,218.485,30.081z"/>
				<path fill-rule="evenodd" clip-rule="evenodd" d="M217.758,30.691c0.032,0.031-0.072,0.112-0.112,0.148
					c0.01,0.039,0.086,0.013,0.091,0.055c-0.262,0.235-0.621,0.367-0.928,0.556c-0.003-0.201,0.06-0.43,0.067-0.655
					c-0.381-0.068-0.79-0.107-1.178-0.172c0.019-0.053,0.05-0.095,0.081-0.133C216.437,30.559,217.088,30.633,217.758,30.691z"/>
				<path fill-rule="evenodd" clip-rule="evenodd" d="M221.991,31.473c0.023-0.108,0.12-0.145,0.271-0.126
					c-0.048,0.114-0.246,0.08-0.238,0.25c-0.161,0.081,0.02,0.239,0.048,0.34c-0.074,0.014-0.145,0.03-0.148,0.112
					c-0.114,0.011-0.104-0.1-0.168-0.136c0.031-0.096,0.062-0.223,0.043-0.305c-0.008-0.034-0.051-0.048-0.067-0.09
					c-0.007-0.017,0.008-0.043,0-0.057c-0.07-0.114-0.206-0.196-0.239-0.317c0.08-0.033,0.18,0.161,0.248,0.169
					C221.772,31.419,221.874,31.453,221.991,31.473z"/>
				<path fill-rule="evenodd" clip-rule="evenodd" d="M221.731,31.122c0.025-0.003,0.042,0.001,0.056,0.012
					c-0.006,0.007-0.011,0.017-0.011,0.032C221.74,31.172,221.725,31.155,221.731,31.122z"/>
				<path fill-rule="evenodd" clip-rule="evenodd" d="M221.912,31.313c0.01,0.005,0.018,0.011,0.033,0.011
					c0.011,0.038-0.017,0.036-0.021,0.059C221.892,31.383,221.896,31.328,221.912,31.313z"/>
				<path fill-rule="evenodd" clip-rule="evenodd" d="M207.089,32.23c0.375,0.013,0.579,0.198,0.746,0.419
					c-0.131,0.156-0.273,0.08-0.509,0.034c-0.439-0.085-1.044-0.057-1.416,0.08c-0.053-0.029-0.107-0.06-0.135-0.114
					c0.164-0.221,0.37-0.401,0.735-0.419c0.078-0.032,0.056-0.163,0.124-0.203c0.133-0.003,0.285-0.05,0.362,0.021
					C207.057,32.103,207.016,32.187,207.089,32.23z"/>
				<path fill-rule="evenodd" clip-rule="evenodd" d="M223.372,33.306c-0.035,0-0.068,0-0.102,0c0-0.046,0-0.09,0-0.138
					c-0.078,0-0.158,0-0.239,0c-0.024,0.024-0.005,0.094-0.011,0.138c-0.071,0-0.143,0-0.214,0c0-0.046,0-0.09,0-0.138
					c-0.076,0-0.151,0-0.226,0c-0.027,0.024-0.005,0.094-0.011,0.138c-0.077,0-0.152,0-0.227,0c0-0.046,0-0.09,0-0.138
					c-0.077,0-0.151,0-0.228,0c-0.025,0.024-0.004,0.094-0.011,0.138c-0.071,0-0.144,0-0.215,0c0-0.046,0-0.09,0-0.138
					c-0.077,0-0.15,0-0.225,0c-0.027,0.024-0.005,0.094-0.012,0.138c-0.076,0-0.152,0-0.225,0c0-0.046,0-0.09,0-0.138
					c-0.076,0-0.151,0-0.228,0c-0.025,0.024-0.004,0.094-0.013,0.138c-0.073,0-0.15,0-0.226,0c0-0.046,0-0.09,0-0.138
					c-0.076,0-0.149,0-0.226,0c-0.025,0.024-0.006,0.094-0.012,0.138c-0.051,0-0.105,0-0.157,0c0.068-0.852,0.727-1.214,1.708-1.132
					C222.898,32.225,223.329,32.686,223.372,33.306z"/>
				<path fill-rule="evenodd" clip-rule="evenodd" d="M205.698,32.74c0.014,0.004,0.016,0.02,0.031,0.023
					c-0.076,0.124-0.291,0.115-0.293,0.316c-0.131,0.024-0.092,0.22-0.182,0.282c-0.025-0.102,0.061-0.287,0.171-0.326
					c0-0.04,0-0.076,0-0.114C205.52,32.864,205.609,32.803,205.698,32.74z"/>
				<path fill-rule="evenodd" clip-rule="evenodd" d="M208.186,32.921c0,0.034,0,0.066,0,0.102c0.128,0.066,0.154,0.236,0.214,0.372
					c0.059,0.02,0.095-0.006,0.125,0c0.012,0.124,0.069,0.203,0.191,0.216c0.015,0.046,0,0.066-0.01,0.112
					c0.064,0.064,0.119,0.137,0.124,0.26c0.068,0.067,0.164,0.109,0.248,0.16c-0.018,0.223,0.011,0.398,0.125,0.487
					c0.013,0.348,0.064,0.895,0.09,1.279c0.008,0.108,0.042,0.257,0.023,0.328c-0.019,0.078-0.148,0.124-0.191,0.169
					c-0.029-0.543-0.128-1.225-0.147-1.764c-0.002-0.012,0.014-0.054,0.012-0.068c-0.012-0.049-0.076-0.091-0.092-0.149
					c-0.023-0.093,0.024-0.201,0-0.281c-0.027-0.095-0.177-0.121-0.237-0.182c0.004-0.104-0.041-0.162-0.09-0.213
					c0.037-0.116-0.057-0.183-0.148-0.205c-0.027-0.059-0.03-0.141-0.079-0.182c-0.029,0-0.061,0-0.09,0
					c-0.053-0.094-0.043-0.249-0.157-0.282c-0.003-0.034,0.004-0.074-0.013-0.092c-0.072-0.079-0.172-0.128-0.261-0.191
					C207.942,32.661,208.061,32.887,208.186,32.921z"/>
				<path fill-rule="evenodd" clip-rule="evenodd" d="M220.26,33.271c0.064,0,0.128,0,0.191,0c0,0.045,0,0.09,0,0.135
					c0.121,0,0.242,0,0.362,0c0.035-0.018-0.009-0.114,0.024-0.135c0.047,0.004,0.011,0.095,0.021,0.135c0.14,0,0.278,0,0.417,0
					c0.036-0.018-0.009-0.114,0.023-0.135c0.049,0.004,0.013,0.095,0.023,0.135c0.139,0,0.28,0,0.417,0
					c0.028-0.023,0.005-0.094,0.016-0.135c0.046,0.004,0.009,0.095,0.02,0.135c0.143,0,0.287,0,0.43,0
					c0.026-0.023,0.006-0.094,0.011-0.135c0.049,0.004,0.011,0.095,0.023,0.135c0.14,0,0.281,0,0.419,0
					c0.033-0.018-0.012-0.114,0.024-0.135c0.047,0.004,0.009,0.095,0.021,0.135c0.14,0,0.279,0,0.419,0
					c0.025-0.023,0.004-0.094,0.011-0.135c0.049,0.004,0.01,0.095,0.023,0.135c0.103,0,0.204,0,0.306,0
					c0.026-0.023,0.005-0.094,0.01-0.135c0.065,0,0.129,0,0.194,0c0,0.287,0,0.574,0,0.86c-0.081,0-0.16,0-0.239,0
					c0.002-0.249,0.04-0.526-0.168-0.52c-0.206,0.003-0.156,0.281-0.16,0.52c-0.105,0-0.211,0-0.315,0
					c-0.008-0.241,0.051-0.521-0.16-0.52c-0.206,0-0.154,0.278-0.158,0.52c-0.098,0-0.195,0-0.293,0
					c-0.008-0.23,0.047-0.505-0.148-0.52c-0.214-0.016-0.185,0.265-0.18,0.52c-0.105,0-0.211,0-0.316,0
					c-0.007-0.241,0.051-0.521-0.161-0.52c-0.203,0-0.152,0.278-0.157,0.52c-0.107,0-0.211,0-0.316,0
					c-0.009-0.23,0.053-0.51-0.146-0.52c-0.217-0.012-0.167,0.271-0.171,0.52c-0.105,0-0.212,0-0.316,0
					C220.26,33.845,220.26,33.559,220.26,33.271z"/>
				<path fill-rule="evenodd" clip-rule="evenodd" d="M205.087,33.383c0.015,0.008,0.026,0.019,0.043,0.023
					c0.072,0.119-0.113,0.141-0.159,0.215c-0.026,0.048,0.008,0.086-0.01,0.137c-0.015,0.042-0.123,0.118-0.102,0.214
					c-0.081,0.049-0.172,0.085-0.228,0.159c-0.013,0.086,0.02,0.196,0,0.284c-0.015,0.067-0.114,0.141-0.123,0.227
					c-0.101,1.013-0.158,2.292-0.239,3.393c0.002-0.006,0.005,0.296-0.02,0.362c-0.026,0.069-0.068,0.047-0.081,0.045
					c-0.051-0.017-0.006-0.365,0-0.452c0.084-1.104,0.165-2.257,0.238-3.36c0.112-0.093,0.145-0.262,0.124-0.487
					c0.085-0.051,0.178-0.096,0.249-0.16c-0.007-0.185,0.158-0.21,0.113-0.372C205.017,33.596,205.078,33.515,205.087,33.383z"/>
				<path fill-rule="evenodd" clip-rule="evenodd" d="M220.158,34.143c-0.332,0.06-0.684,0.101-1.008,0.169
					c0.202-0.361,0.499-0.722,0.996-0.827C220.172,33.683,220.15,33.928,220.158,34.143z"/>
				<path fill-rule="evenodd" clip-rule="evenodd" d="M223.768,33.486c0.525,0.094,0.792,0.447,1.03,0.827
					c-0.336-0.063-0.688-0.111-1.03-0.169C223.768,33.925,223.768,33.705,223.768,33.486z"/>
				<path fill-rule="evenodd" clip-rule="evenodd" d="M205.311,33.735c0.965,0,1.933,0,2.899,0c0.01,0.076,0.009,0.163,0.031,0.226
					c0.03,0.056,0.15,0.018,0.204,0.048c0.062,0.124-0.031,0.51,0.069,0.608c0.079,0.078,0.243,0,0.361,0.058
					c0.038,0.458,0.076,0.903,0.114,1.379c0.01,0.148,0.059,0.346,0.034,0.465c-0.017,0.074-0.114,0.154-0.171,0.249
					c-0.157,0.265-0.268,0.602-0.316,0.962c-0.129,0.032-0.245,0.07-0.361,0.115c-0.036-0.646,0.044-1.252,0-1.881
					c-0.029-0.401-0.228-0.718-0.464-0.926c-0.244-0.213-0.601-0.39-1.031-0.363c-0.733,0.043-1.284,0.585-1.336,1.325
					c-0.051,0.757,0.039,1.582,0,2.443c-0.33,0-0.663,0-0.994,0c0.091-1.258,0.174-2.524,0.271-3.779
					c0.102-0.024,0.261,0.004,0.362-0.021c0.074-0.15,0.015-0.432,0.035-0.633c0.087-0.013,0.186-0.012,0.247-0.048
					C205.322,33.928,205.255,33.769,205.311,33.735z"/>
				<path fill-rule="evenodd" clip-rule="evenodd" d="M204.916,34.075c0,0.155,0,0.309,0,0.465c-0.076,0-0.152,0-0.228,0
					c0.077-0.067,0.057-0.232,0.057-0.373C204.805,34.138,204.84,34.085,204.916,34.075z"/>
				<path fill-rule="evenodd" clip-rule="evenodd" d="M225.148,34.493c0,0.081,0,0.159,0,0.236c0.011,0.028,0.071,0.007,0.102,0.013
					c0,0.046,0,0.09,0,0.135c0.143-0.024,0.199,0.038,0.227,0.126c0.069-0.027,0.12-0.077,0.191-0.102
					c0.013,0.048,0.064,0.057,0.067,0.113c-0.209,0.021-0.439,0.066-0.6,0.034c-0.098-0.019-0.169-0.099-0.237-0.124
					c-0.218-0.083-0.459-0.062-0.634,0.044c-0.031,0.021-0.064,0.07-0.113,0.08c-0.133,0.033-0.259-0.024-0.407,0
					c-0.045,0.032-0.004,0.147-0.034,0.191c-0.189,0.007-0.361-0.007-0.543-0.01c-0.185-0.416-0.472-0.914-1.019-0.973
					c-0.808-0.086-1.138,0.434-1.381,0.973c-0.183,0.003-0.351,0.018-0.543,0.01c-0.015-0.05-0.003-0.132-0.021-0.179
					c-0.149-0.044-0.282,0.015-0.407-0.012c-0.086-0.019-0.14-0.1-0.193-0.124c-0.164-0.077-0.384-0.069-0.565,0
					c-0.064,0.024-0.132,0.103-0.228,0.124c-0.168,0.037-0.385-0.026-0.633,0c0.025-0.061,0.059-0.115,0.111-0.147
					c0.045,0.044,0.115,0.06,0.162,0.102c0.04-0.03,0.055-0.088,0.09-0.126c0.047,0,0.097,0,0.146,0
					c0.026-0.023,0.004-0.093,0.01-0.135c0.036,0,0.07,0,0.104,0c0-0.085,0-0.173,0-0.26c0.411-0.058,0.873-0.193,1.368-0.238
					c0.546-0.05,1.176,0,1.787,0c0.609,0,1.234-0.041,1.778,0C224.229,34.282,224.723,34.417,225.148,34.493z M219.876,34.617
					c0.184-0.031,0.392-0.043,0.575-0.077C220.434,34.18,219.836,34.247,219.876,34.617z M223.542,34.54
					c0.183,0.034,0.391,0.046,0.578,0.077C224.154,34.26,223.555,34.167,223.542,34.54z M218.901,34.776
					c0.192-0.021,0.378-0.051,0.578-0.067C219.48,34.333,218.856,34.419,218.901,34.776z M224.503,34.708
					c0.2,0.017,0.388,0.042,0.578,0.067C225.135,34.4,224.501,34.35,224.503,34.708z"/>
				<path fill-rule="evenodd" clip-rule="evenodd" d="M223.089,35.331c0.228,0.017,0.484,0.005,0.712,0.023
					c0.021-0.054,0.025-0.127,0.022-0.205c0.127,0,0.25,0,0.374,0c0.176-0.223,0.691-0.209,0.872,0c0.032,0,0.067,0,0.103,0
					c-0.06,0.042-0.128,0.069-0.193,0.103c-0.271-0.083-0.49,0.073-0.531,0.293c0.039,0.041,0.136,0.024,0.192,0.046
					c-0.03,0.064-0.069,0.12-0.08,0.203c-0.054,0.005-0.096-0.003-0.137-0.01c-0.015,0.473-0.031,0.948-0.056,1.417
					c0.036,0.033,0.102,0.039,0.171,0.041c0,0.047,0,0.092,0,0.138c-0.136,0.045-0.264,0.097-0.386,0.156
					c-0.33-0.034-0.676-0.055-1.007-0.09c-0.027,0.04-0.004,0.125-0.012,0.183c-0.552,0.252-1.543,0.226-2.104,0
					c0-0.061,0-0.122,0-0.183c-0.434,0.048-0.87,0.048-1.325,0.09c-0.135,0.013-0.263,0.059-0.396,0.069
					c-0.307,0.023-0.625-0.043-0.928-0.057c-0.072-0.002-0.186,0.032-0.225-0.034c-0.003-0.071,0.117-0.017,0.168-0.034
					c0-0.199,0-0.4,0-0.6c-0.071,0-0.143,0-0.215,0c-0.037-0.381-0.069-0.768-0.103-1.155c-0.022-0.025-0.094-0.003-0.134-0.01
					c-0.012-0.052-0.019-0.111-0.035-0.159c0.025-0.063,0.102-0.073,0.137-0.125c-0.023-0.155,0.03-0.233,0.113-0.284
					c0.276-0.042,0.513,0.06,0.77,0c0.118-0.027,0.218-0.148,0.373-0.168c0.213-0.026,0.355,0.046,0.51,0.168
					c0.123,0,0.249,0,0.373,0c-0.006,0.079,0.02,0.125,0.011,0.205c0.229-0.016,0.486-0.006,0.714-0.023
					c0.232-0.5,0.518-1.042,1.255-0.974C222.652,34.409,222.894,34.882,223.089,35.331z M222.455,35.14
					c-0.066-0.06-0.172-0.126-0.271-0.15c-0.461-0.111-0.782,0.253-0.816,0.624c-0.041,0.483,0.032,1.151,0,1.708
					c0.439,0,0.877,0,1.315,0C222.602,36.58,222.875,35.514,222.455,35.14z M218.913,35.568c0.283,0,0.566,0,0.849,0
					C219.828,34.989,218.877,35.055,218.913,35.568z M218.913,35.794c0.028,0.457,0.069,0.995,0.125,1.459
					c0.205,0.068,0.52,0.029,0.724-0.012c-0.016-0.489-0.04-0.969-0.066-1.448C219.475,35.709,219.15,35.764,218.913,35.794z
					 M220.182,35.805c0.041,0.454,0.074,0.915,0.111,1.373c0.188,0.081,0.47,0.024,0.679,0c-0.028-0.453-0.038-0.92-0.067-1.373
					C220.712,35.72,220.387,35.769,220.182,35.805z M223.18,35.863c0,0.441,0,0.883,0,1.326c0.192,0.024,0.498,0.05,0.656-0.025
					c0.006-0.453,0.037-0.881,0.045-1.333C223.669,35.805,223.343,35.772,223.18,35.863z"/>
				<path fill-rule="evenodd" clip-rule="evenodd" d="M208.074,37.865c-0.088,0.071-0.213,0.105-0.319,0.158
					c-0.027-0.504,0.039-0.931,0-1.368c-0.051-0.584-0.561-0.959-1.142-0.906c-0.453,0.041-0.853,0.395-0.905,0.894
					c-0.062,0.596,0.046,1.182,0,1.799c-0.085-0.006-0.193,0.014-0.261-0.012c0-0.617,0-1.268,0-1.843
					c0-0.331-0.014-0.613,0.057-0.861c0.142-0.489,0.578-0.906,1.198-0.95c0.417-0.029,0.724,0.153,0.942,0.352
					c0.207,0.189,0.399,0.501,0.43,0.859C208.118,36.56,208.038,37.216,208.074,37.865z"/>
				<path fill-rule="evenodd" clip-rule="evenodd" d="M229.403,36.259c-1.592-0.124-3.151-0.284-4.742-0.406
					c0.126-0.601,0.798-0.698,1.417-0.771c0.264-0.031,0.597,0.012,0.891,0.046c0.784,0.092,1.671,0.307,2.129,0.688
					C229.232,35.931,229.366,36.1,229.403,36.259z"/>
				<path fill-rule="evenodd" clip-rule="evenodd" d="M207.653,37.38c-0.044,0.005-0.126-0.058-0.192-0.102
					c-0.06-0.044-0.116-0.115-0.181-0.148c-0.062-0.032-0.148-0.03-0.169-0.112c-0.091-0.012-0.145-0.059-0.191-0.114
					c0.003-0.097,0.04-0.191,0-0.271c-0.147-0.083-0.329-0.131-0.476-0.216c-0.042-0.155-0.125-0.269-0.159-0.43
					c0.58-0.371,1.314,0.07,1.368,0.702C207.672,36.913,207.64,37.118,207.653,37.38z"/>
				<path fill-rule="evenodd" clip-rule="evenodd" d="M211.76,35.953c0.004,0.083-0.136,0.128-0.213,0.17
					c-0.602,0.319-1.244,0.656-1.857,0.974c0.003,0.042,0.021,0.048-0.032,0.045c-0.02,0.149-0.051,0.29-0.081,0.429
					c-0.346,0.007-0.634,0.066-0.926,0.125c0.087-0.53,0.263-0.927,0.575-1.233c0.072-0.071,0.174-0.114,0.26-0.172
					c0.077-0.05,0.196-0.135,0.317-0.168c0.06-0.017,0.132-0.01,0.203-0.023c0.319-0.059,0.77-0.087,1.188-0.125
					C211.382,35.96,211.568,35.981,211.76,35.953z"/>
				<path fill-rule="evenodd" clip-rule="evenodd" d="M224.661,35.953c1.585,0.14,3.17,0.278,4.754,0.42c0,0.392,0,0.782,0,1.176
					c-0.026,0.016-0.083-0.062-0.126-0.103c-0.598-0.566-2.214-0.636-3.395-0.506c-0.199,0.02-0.372,0.039-0.53,0.089
					c-0.234,0.071-0.455,0.235-0.703,0.305C224.643,36.899,224.643,36.388,224.661,35.953z"/>
				<path fill-rule="evenodd" clip-rule="evenodd" d="M211.76,36.123c0.063,0.232,0.055,0.537,0.092,0.792
					c-0.626,0.048-1.24,0.11-1.866,0.158C210.569,36.75,211.175,36.444,211.76,36.123z"/>
				<path fill-rule="evenodd" clip-rule="evenodd" d="M211.692,37.028c0.05,0.001-0.022,0.043-0.022,0.069
					c0.022,0.106,0.094,0.194,0.149,0.293c0.108,0.205,0.188,0.332,0.102,0.633c-0.485,0.033-0.996,0.04-1.448,0.103
					c-0.02,1.349,0.087,2.777,0.125,4.152c-0.256,0.001-0.487-0.019-0.726-0.034c-0.043-1.672-0.072-3.361-0.103-5.044
					C210.414,37.144,211.06,37.092,211.692,37.028z"/>
				<path fill-rule="evenodd" clip-rule="evenodd" d="M227.988,37.084c0.77,0.093,1.513,0.307,1.528,1.189
					C229.302,37.583,228.765,37.214,227.988,37.084z"/>
				<path fill-rule="evenodd" clip-rule="evenodd" d="M229.425,39.111c-0.132,0.016-0.266,0.025-0.395,0.043
					c-0.023-0.45,0.057-1.018-0.228-1.231c-0.318-0.242-1.18-0.206-1.707-0.239c-0.566-0.037-1.386-0.077-1.653,0.247
					c-0.237,0.291-0.037,0.925-0.181,1.315c-0.217,0-0.408-0.042-0.622-0.011c-0.093-0.643-0.027-1.233,0.282-1.551
					c0.423-0.433,1.175-0.519,1.969-0.555C228.378,37.06,229.675,37.515,229.425,39.111z"/>
				<path fill-rule="evenodd" clip-rule="evenodd" d="M218.053,37.515c0,0.043,0,0.083,0,0.125c0.023,0.026,0.093,0.004,0.138,0.01
					c0,0.176,0,0.35,0,0.521c-0.138,0.113-0.295,0.2-0.464,0.306c-0.046,0.025-0.121,0.091-0.16,0.091
					c-0.081,0.002-0.179-0.121-0.248-0.147c-0.263-0.102-0.61-0.064-0.928-0.124c0.042-0.104,0.105-0.187,0.159-0.283
					c0.049-0.096,0.072-0.218,0.136-0.307c0.022-0.031,0.402-0.32,0.484-0.316c0.09,0.005,0.178,0.049,0.283,0.068
					C217.64,37.492,217.853,37.476,218.053,37.515z"/>
				<path fill-rule="evenodd" clip-rule="evenodd" d="M224.74,37.412c-0.155,0.212-0.267,0.562-0.305,0.927
					c-0.36,0.015-0.735,0.015-1.109,0.012c0.01-0.057-0.001-0.096-0.066-0.078C223.59,37.826,224.193,37.646,224.74,37.412z"/>
				<path fill-rule="evenodd" clip-rule="evenodd" d="M222.761,38.839c0.034,0,0.066,0,0.103,0c0.025-0.068,0.104-0.084,0.147-0.136
					c0.01-0.225-0.016-0.535,0-0.792c0.002-0.084-0.009-0.162,0.102-0.158c0,0.447,0,0.897,0,1.348
					c-0.837,0.36-2.37,0.296-2.773-0.42c-0.679-0.007-1.388,0.015-2.05-0.012c0.01-0.335-0.013-0.702,0.012-1.019
					c0.333,0,0.647,0.079,0.962,0.067c0.13-0.003,0.265-0.048,0.398-0.067c0.407-0.051,0.832-0.042,1.268-0.09
					c0,0.045,0,0.09,0,0.136c0.053,0.032,0.119,0.056,0.192,0.067c0,0.317,0,0.634,0,0.952c0.033,0.027,0.068,0.051,0.114,0.068
					c0-0.325,0-0.649,0-0.975c0.055-0.005,0.078,0.027,0.133,0.025c0,0.333,0,0.668,0,1.005c0.357,0.141,1.001,0.133,1.37,0.01
					c0-0.331,0-0.662,0-0.993c0.056-0.008,0.098-0.025,0.147-0.035c0,0.128,0,0.291,0,0.462c0,0.163,0.033,0.37,0,0.466
					C222.863,38.811,222.807,38.811,222.761,38.839z M220.451,37.65c0,0.208,0,0.416,0,0.624c0.125,0,0.25,0,0.374,0
					c0-0.208,0-0.415,0-0.624C220.701,37.65,220.576,37.65,220.451,37.65z M219.762,37.911c-0.066-0.205-0.369-0.225-0.44-0.024
					c-0.067,0.192,0.025,0.451-0.013,0.681c0.152,0,0.303,0,0.453,0C219.762,38.349,219.762,38.129,219.762,37.911z M220.985,38.364
					c-0.006,0.1-0.046,0.209,0.032,0.271c-0.006-0.276,0.017-0.641-0.011-0.861C221.001,37.981,220.993,38.18,220.985,38.364z"/>
				<path fill-rule="evenodd" clip-rule="evenodd" d="M223.248,37.56c0.231,0.023,0.456,0.048,0.702,0.056
					c-0.032,0.044-0.104,0.049-0.137,0.09c-0.037,0.005-0.009-0.051-0.034-0.057c-0.117,0-0.235,0-0.352,0
					c-0.024,0.072-0.005,0.194-0.011,0.282c-0.096,0.091-0.186,0.184-0.272,0.284c0.005-0.171-0.028-0.302-0.022-0.474
					c0.045-0.004,0.062-0.036,0.112-0.036C223.24,37.658,223.225,37.592,223.248,37.56z"/>
				<path fill-rule="evenodd" clip-rule="evenodd" d="M209.531,37.674c0.015,0.17-0.074,0.446-0.1,0.665
					c-1.226,0.196-2.088,0.752-2.422,1.835c-0.252-0.134-0.464-0.306-0.713-0.44C206.834,38.502,207.902,37.806,209.531,37.674z"/>
				<path fill-rule="evenodd" clip-rule="evenodd" d="M209.658,37.707c0.062,1.484,0.069,3.024,0.101,4.538
					c-0.304-0.02-0.62-0.028-0.939-0.035C209.083,40.695,209.407,39.237,209.658,37.707z"/>
				<path fill-rule="evenodd" clip-rule="evenodd" d="M228.883,38.284c-0.972,0.013-1.923,0.046-2.886,0.067
					c-0.03-0.229-0.158-0.361-0.339-0.44c0.493-0.238,1.16-0.126,1.9-0.09C228.153,37.848,228.803,37.805,228.883,38.284z"/>
				<path fill-rule="evenodd" clip-rule="evenodd" d="M221.81,37.911c0,0.31,0,0.616,0,0.928c-0.05,0-0.099,0-0.146,0
					c0-0.317,0-0.634,0-0.952C221.71,37.899,221.77,37.895,221.81,37.911z"/>
				<path fill-rule="evenodd" clip-rule="evenodd" d="M222.421,38.839c-0.045,0-0.091,0-0.135,0c0-0.312,0-0.618,0-0.928
					c0.038-0.006,0.103,0.015,0.123-0.012C222.436,38.19,222.414,38.527,222.421,38.839z"/>
				<path fill-rule="evenodd" clip-rule="evenodd" d="M225.646,38.013c0,0.222,0,0.445,0,0.667c-0.072,0-0.144,0-0.216,0
					c-0.023-0.263-0.027-0.589,0.137-0.701C225.596,37.989,225.611,38.011,225.646,38.013z"/>
				<path fill-rule="evenodd" clip-rule="evenodd" d="M224.402,38.442c-0.017,0.104,0.035,0.138,0.021,0.238
					c-0.273,0-0.55,0-0.825,0c-0.058,0.126-0.156,0.214-0.261,0.295c-0.024-0.152-0.004-0.352-0.011-0.521
					C223.684,38.449,224.064,38.467,224.402,38.442z"/>
				<path fill-rule="evenodd" clip-rule="evenodd" d="M209.385,38.454c0.053,0.059-0.019,0.184-0.021,0.261
					c-1.415,0.358-2.351,1.532-2.05,3.453c-0.148,0.005-0.266-0.022-0.418-0.014c0.024-0.496,0.029-1.005,0.125-1.425
					c0.043-0.189,0.11-0.362,0.091-0.521C207.426,39.182,208.241,38.653,209.385,38.454z"/>
				<path fill-rule="evenodd" clip-rule="evenodd" d="M215.677,38.59c0.107,0.04,0.172,0.122,0.296,0.148
					c-0.075,0.08-0.176,0.133-0.285,0.18C215.687,38.805,215.692,38.686,215.677,38.59z"/>
				<path fill-rule="evenodd" clip-rule="evenodd" d="M224.423,38.783c-0.004,0.26,0.006,0.506,0.024,0.745
					c-0.313-0.005-0.667,0.033-0.871-0.078c0-0.035,0-0.068,0-0.103c-0.085-0.039-0.186-0.064-0.25-0.124
					c-0.04-0.143,0.092-0.162,0.171-0.226c0.085-0.072,0.126-0.164,0.181-0.214C223.928,38.783,224.175,38.783,224.423,38.783z"/>
				<path fill-rule="evenodd" clip-rule="evenodd" d="M225.884,38.839c-0.008,0.265,0.014,0.558-0.01,0.804
					c-0.136-0.006-0.244-0.086-0.387-0.115c-0.216-0.042-0.481,0.031-0.757,0c-0.02-0.047-0.008-0.126-0.011-0.191
					c0.202-0.033,0.415,0.04,0.609,0.01c0.087-0.134,0.081-0.363,0.102-0.564C225.6,38.786,225.729,38.823,225.884,38.839z"/>
				<path fill-rule="evenodd" clip-rule="evenodd" d="M209.341,38.828c0.013,0.179-0.055,0.377-0.079,0.554
					c-0.453,0.203-0.818,0.539-1.021,1.029c-0.193,0.474-0.208,1.224-0.055,1.788c-0.245-0.014-0.498-0.022-0.757-0.022
					C207.1,40.387,208.003,39.18,209.341,38.828z"/>
				<path fill-rule="evenodd" clip-rule="evenodd" d="M229.279,39.337c0,0.425,0,0.852,0,1.278
					c-0.075-0.026-0.155-0.049-0.239-0.066c0-0.255,0-0.509,0-0.76c-0.264-0.076-0.563-0.114-0.837-0.181
					c0.009,0.243-0.017,0.451-0.011,0.69c-0.119-0.022-0.221-0.058-0.327-0.09c0-0.199,0-0.401,0-0.6
					c-0.23-0.065-0.49-0.1-0.727-0.158c-0.021,0.168,0.005,0.389-0.021,0.554c-0.053-0.137-0.009-0.37-0.022-0.542
					c-0.364-0.12-0.683-0.101-1.029-0.192c0-0.134,0-0.265,0-0.397C227.15,39.015,228.195,39.195,229.279,39.337z"/>
				<path fill-rule="evenodd" clip-rule="evenodd" d="M229.506,39.213c-0.005,0.425-0.049,0.874-0.081,1.278
					c-0.003,0.051,0.03,0.133-0.032,0.158c-0.019-0.449-0.019-0.976,0-1.425C229.422,39.212,229.461,39.21,229.506,39.213z"/>
				<path fill-rule="evenodd" clip-rule="evenodd" d="M224.594,39.36c0.061,0.461,0.036,1.053,0.091,1.537
					c-0.032,0.049-0.088-0.067-0.137-0.078c0.051-0.457,0.009-1.03,0-1.459C224.564,39.36,224.58,39.36,224.594,39.36z"/>
				<path fill-rule="evenodd" clip-rule="evenodd" d="M225.997,39.371c0.12,0.017,0.228,0.042,0.34,0.068c0,0.252,0,0.505,0,0.757
					c-0.131-0.05-0.236-0.125-0.362-0.18C226.001,39.821,225.971,39.566,225.997,39.371z"/>
				<path fill-rule="evenodd" clip-rule="evenodd" d="M223.395,39.395c0.031-0.005,0.034,0.025,0.067,0.021c0,0.158,0,0.318,0,0.474
					C223.332,39.833,223.418,39.557,223.395,39.395z"/>
				<path fill-rule="evenodd" clip-rule="evenodd" d="M226.551,39.45c0.146,0.031,0.296,0.059,0.441,0.088c0,0.333,0,0.666,0,0.999
					c-0.165-0.07-0.311-0.156-0.463-0.239C226.548,40.027,226.544,39.734,226.551,39.45z"/>
				<path fill-rule="evenodd" clip-rule="evenodd" d="M208.707,42.21c-0.149,0.009-0.266-0.014-0.407-0.011
					c-0.152-0.566-0.155-1.171,0-1.64c0.154-0.466,0.488-0.821,0.893-1.021C209.066,40.42,208.864,41.323,208.707,42.21z"/>
				<path fill-rule="evenodd" clip-rule="evenodd" d="M227.242,39.586c0.183,0.025,0.342,0.073,0.52,0.101c0,0.415,0,0.829,0,1.246
					c-0.216-0.085-0.389-0.208-0.601-0.294c0.005-0.025,0.061,0.002,0.057-0.035C227.223,40.26,227.226,39.918,227.242,39.586z"/>
				<path fill-rule="evenodd" clip-rule="evenodd" d="M223.667,39.597c0.044-0.004,0.057,0.025,0.101,0.023c0,0.169,0,0.339,0,0.509
					c-0.009,0.038-0.08-0.044-0.101-0.068C223.667,39.907,223.667,39.753,223.667,39.597z"/>
				<path fill-rule="evenodd" clip-rule="evenodd" d="M223.871,39.643c0.051,0.154,0.006,0.404,0.021,0.598
					C223.84,40.088,223.885,39.835,223.871,39.643z"/>
				<path fill-rule="evenodd" clip-rule="evenodd" d="M223.993,39.654c0.23-0.048,0.304,0.156,0.465,0.215
					c0.006,0.034-0.014,0.096,0.012,0.113c-0.062,0.014-0.149-0.049-0.216-0.068c-0.026,0.188-0.002,0.425-0.011,0.635
					c-0.097-0.057-0.059-0.213-0.059-0.341c0-0.13,0.028-0.297,0-0.385C224.155,39.719,224.052,39.726,223.993,39.654z"/>
				<path fill-rule="evenodd" clip-rule="evenodd" d="M225.273,39.654c0.019-0.027,0.086-0.004,0.124-0.011c0,0.023,0,0.044,0,0.067
					C225.345,39.701,225.319,39.667,225.273,39.654z"/>
				<path fill-rule="evenodd" clip-rule="evenodd" d="M225.522,39.666c0.12,0.024,0.226,0.068,0.352,0.089c0,0.068,0,0.134,0,0.204
					c-0.118-0.052-0.224-0.116-0.342-0.17C225.542,39.736,225.516,39.717,225.522,39.666z"/>
				<path fill-rule="evenodd" clip-rule="evenodd" d="M227.017,43.06c-0.113,0.698-0.198,1.425-0.307,2.128
					c-0.02,0.006-0.047-0.023-0.057-0.035c-0.286-0.322-0.565-0.694-0.849-1.041c-0.829-1.014-1.671-2.006-2.523-3.044
					c-0.067-0.085-0.199-0.221-0.215-0.282c-0.036-0.148,0-0.358,0-0.533c0-0.182,0-0.363,0-0.519
					c0.05-0.015,0.097,0.043,0.126,0.066C224.449,40.869,225.764,41.975,227.017,43.06z"/>
				<path fill-rule="evenodd" clip-rule="evenodd" d="M228.238,41.306c-0.395,0.088-0.819,0.148-1.222,0.226
					c-0.043-0.098-0.118-0.162-0.161-0.259c-0.024,0.021-0.002,0.093-0.011,0.134c-0.714-0.476-1.406-0.977-2.104-1.471
					c-0.005-0.063-0.018-0.116-0.01-0.192c0.007-0.003,0.01-0.01,0.022-0.01c0.124,0.02,0.3-0.029,0.441,0
					c0.107,0.022,0.26,0.126,0.384,0.192C226.463,40.387,227.346,40.853,228.238,41.306z"/>
				<path fill-rule="evenodd" clip-rule="evenodd" d="M228.305,39.744c0.221,0.033,0.418,0.089,0.635,0.125
					c-0.009,0.799,0.015,1.629-0.011,2.41c-0.067-0.024-0.061-0.131-0.07-0.191c-0.025-0.225-0.046-0.483-0.076-0.703
					c-0.102,0-0.206,0-0.307,0c0.008-0.025,0.069,0.002,0.078-0.021c-0.21-0.13-0.441-0.237-0.666-0.35
					c0.11-0.039,0.263-0.032,0.395-0.046C228.285,40.552,228.305,40.159,228.305,39.744z"/>
				<path fill-rule="evenodd" clip-rule="evenodd" d="M223.993,39.789c0.027,0.018,0.051,0.043,0.08,0.058c0,0.18,0,0.362,0,0.542
					c-0.013,0.056-0.037-0.046-0.08-0.035C223.993,40.166,223.993,39.978,223.993,39.789z"/>
				<path fill-rule="evenodd" clip-rule="evenodd" d="M224.345,40.072c0.053,0.004,0.084,0.029,0.125,0.047
					c0.009,0.214-0.017,0.396-0.012,0.61C224.261,40.67,224.375,40.297,224.345,40.072z"/>
				<path fill-rule="evenodd" clip-rule="evenodd" d="M224.74,40.084c0.197,0.107,0.35,0.252,0.545,0.36
					c-0.15,0.042-0.347,0.034-0.51,0.057C224.736,40.389,224.798,40.179,224.74,40.084z"/>
				<path fill-rule="evenodd" clip-rule="evenodd" d="M227.096,40.106c0.043,0.09,0.021,0.309,0.012,0.418
					C227.079,40.409,227.101,40.241,227.096,40.106z"/>
				<path fill-rule="evenodd" clip-rule="evenodd" d="M227.865,40.333c0.122,0.015,0.225,0.053,0.327,0.09
					c-0.016,0.136-0.012,0.291-0.013,0.44c-0.096,0.012-0.239,0.029-0.314,0.023C227.865,40.702,227.865,40.516,227.865,40.333z"/>
				<path fill-rule="evenodd" clip-rule="evenodd" d="M225.397,40.538c0.025,0.088-0.007,0.297-0.011,0.133
					C225.386,40.629,225.38,40.563,225.397,40.538z"/>
				<path fill-rule="evenodd" clip-rule="evenodd" d="M225.273,40.56c0.035,0.083-0.014,0.184,0,0.282
					c0.053,0.026,0.154,0.005,0.225,0.012c-0.007-0.092,0.018-0.15,0.012-0.238c0.138,0.021,0.1,0.22,0.102,0.372
					c0.021,0.032,0.074,0.028,0.103,0.047c0.006,0.05-0.004,0.083-0.011,0.124c-0.222,0.025-0.434,0.057-0.645,0.091
					c-0.064-0.073-0.164-0.115-0.213-0.205c0.055,0,0.11,0,0.166,0c0.029,0.053,0.079,0.082,0.104,0.137c0.05,0,0.099,0,0.147,0
					c0-0.118,0-0.233,0-0.352c-0.16,0-0.316,0-0.476,0c-0.011-0.063-0.02-0.181-0.011-0.226
					C224.946,40.593,225.115,40.583,225.273,40.56z"/>
				<path fill-rule="evenodd" clip-rule="evenodd" d="M233.115,41.827c-0.893,0.141-1.885,0.345-2.807,0.521
					c-0.132,0.025-0.291,0.074-0.396,0.066c-0.143-0.01-0.31-0.139-0.442-0.204c-0.152-0.075-0.295-0.137-0.43-0.213
					c0-0.435,0-0.868,0-1.301c-0.001-0.016-0.001-0.034,0.011-0.035C230.401,41.052,231.788,41.409,233.115,41.827z"/>
				<path fill-rule="evenodd" clip-rule="evenodd" d="M225.714,40.762c0.057-0.004,0.037,0.13,0.022,0.159
					C225.688,40.911,225.727,40.812,225.714,40.762z"/>
				<path fill-rule="evenodd" clip-rule="evenodd" d="M225.852,40.863c0.046,0.059,0.005,0.217-0.013,0.284
					C225.783,41.081,225.886,40.984,225.852,40.863z"/>
				<path fill-rule="evenodd" clip-rule="evenodd" d="M225.069,40.956c0.008-0.025,0.062-0.006,0.09-0.012c0,0.032,0,0.068,0,0.101
					C225.118,41.028,225.108,40.974,225.069,40.956z"/>
				<path fill-rule="evenodd" clip-rule="evenodd" d="M225.975,40.944c0.052,0.022,0.088,0.062,0.136,0.09c0,0.109,0,0.217,0,0.328
					c-0.051-0.038-0.106-0.068-0.159-0.102C225.948,41.145,225.974,41.054,225.975,40.944z"/>
				<path fill-rule="evenodd" clip-rule="evenodd" d="M226.224,41.113c0.02,0.01,0.032,0.027,0.056,0.034
					c-0.008,0.071,0.021,0.178-0.023,0.216C226.186,41.338,226.24,41.191,226.224,41.113z"/>
				<path fill-rule="evenodd" clip-rule="evenodd" d="M226.393,41.25c0.043-0.013,0.033,0.029,0.067,0.023
					c-0.014,0.1,0.028,0.259-0.056,0.293C226.346,41.494,226.416,41.361,226.393,41.25z"/>
				<path fill-rule="evenodd" clip-rule="evenodd" d="M225.962,41.396c-0.167,0.051-0.388,0.047-0.564,0.09
					c-0.033,0.009,0.01,0.024,0,0.045c-0.079-0.058-0.143-0.131-0.226-0.181C225.435,41.294,225.805,41.194,225.962,41.396z"/>
				<path fill-rule="evenodd" clip-rule="evenodd" d="M226.563,41.363c0.067,0.031,0.128,0.074,0.182,0.124c0,0.127,0,0.257,0,0.383
					c0.021,0.026,0.068,0.024,0.1,0.037c0,0.263,0,0.526,0,0.792c0.062,0.025,0.172,0.003,0.251,0.012
					c-0.008-0.367-0.033-0.715-0.047-1.075c0.052-0.012,0.115-0.014,0.16-0.034c0.015,0.173-0.009,0.405-0.024,0.587
					c0.098,0,0.197,0,0.294,0c0.03-0.144,0.037-0.348,0.057-0.509c0.004-0.046-0.026-0.133,0.045-0.136
					c0.051,0.016,0.033,0.19,0.058,0.273c0.014,0.028,0.095-0.007,0.112,0.021c0,0.196,0,0.392,0,0.587
					c0.078,0.055,0.196,0.071,0.294,0.102c0.049-0.256,0.042-0.567,0.059-0.857c0.229,0.086,0.419,0.212,0.644,0.305
					c0.011,0.14,0.039,0.263,0.045,0.408c0.083,0,0.166,0,0.248,0c0-0.084,0-0.166,0-0.249c0.235,0.092,0.446,0.207,0.669,0.317
					c-0.691,0.153-1.521,0.293-2.284,0.439c-0.11,0.021-0.243,0.079-0.317,0.069c-0.053-0.008-0.18-0.12-0.239-0.17
					c-0.178-0.15-0.258-0.22-0.44-0.374c-0.064-0.052-0.187-0.155-0.204-0.191c-0.041-0.093-0.033-0.246-0.047-0.364
					c-0.012-0.125-0.029-0.251-0.033-0.372c0.057,0.014,0.099-0.029,0.136,0c0.009,0.068-0.018,0.102-0.012,0.171
					c0.065,0.025,0.179,0.004,0.262,0.011C226.554,41.581,226.558,41.469,226.563,41.363z"/>
				<path fill-rule="evenodd" clip-rule="evenodd" d="M227.988,41.464c0.045,0.241-0.029,0.621-0.022,0.929
					c-0.038-0.012-0.078-0.02-0.113-0.035c-0.009-0.303,0.014-0.575,0.013-0.871C227.913,41.487,227.947,41.47,227.988,41.464z"/>
				<path fill-rule="evenodd" clip-rule="evenodd" d="M228.68,41.487c0.023,0.107,0.038,0.226,0.044,0.351
					c-0.216-0.09-0.421-0.19-0.611-0.306c0-0.011,0-0.021,0-0.034C228.28,41.47,228.492,41.494,228.68,41.487z"/>
				<path fill-rule="evenodd" clip-rule="evenodd" d="M226.099,42.098c-0.045,0.022-0.143-0.096-0.192-0.147c0-0.142,0-0.287,0-0.43
					c0.036-0.009,0.082-0.008,0.113-0.023C226.069,41.677,226.072,41.899,226.099,42.098z"/>
				<path fill-rule="evenodd" clip-rule="evenodd" d="M227.717,41.51c0.016,0,0.031,0,0.046,0c-0.008,0.067,0.013,0.165-0.012,0.214
					C227.712,41.686,227.709,41.559,227.717,41.51z"/>
				<path fill-rule="evenodd" clip-rule="evenodd" d="M225.794,41.532c0.025,0.091,0.003,0.231,0.011,0.338
					c-0.102-0.086-0.23-0.146-0.282-0.281C225.581,41.539,225.719,41.566,225.794,41.532z"/>
				<path fill-rule="evenodd" clip-rule="evenodd" d="M227.435,41.566c-0.01,0.178-0.026,0.351-0.045,0.521
					c-0.029,0-0.062,0-0.091,0c0.009-0.164,0.024-0.325,0.021-0.498C227.351,41.574,227.398,41.576,227.435,41.566z"/>
				<path fill-rule="evenodd" clip-rule="evenodd" d="M226.948,41.858c0.012,0.186,0.05,0.562,0.021,0.748
					C226.918,42.403,226.963,42.103,226.948,41.858z"/>
				<path fill-rule="evenodd" clip-rule="evenodd" d="M233.352,41.882c0.105,0.716,0.082,1.673,0.024,2.421
					c-2.194,0.321-4.38,0.646-6.563,0.975c0.094-0.747,0.203-1.481,0.305-2.219C229.2,42.671,231.257,42.257,233.352,41.882z"/>
				<path fill-rule="evenodd" clip-rule="evenodd" d="M221.799,31.055c-0.034-0.003-0.063,0.025-0.09,0
					c-0.028,0.013-0.05,0.094-0.024,0.122c-0.071-0.008-0.125-0.129-0.227-0.145c-0.05,0.229,0.123,0.336,0.227,0.451
					c-0.03,0.073,0.038,0.084,0.056,0.136c-0.008,0.092,0.003,0.203-0.044,0.284c0.009,0.07,0.101,0.119,0.091,0.169
					c-0.36-0.021-0.597,0.142-0.802,0.238c0.007-2.263-0.016-4.558,0.012-6.802c0.061-0.005,0.093,0.06,0.135,0.092
					c0.668,0.528,1.733,1.19,2.976,0.847c0.164-0.043,0.376-0.204,0.51-0.317c0.14-0.116,0.264-0.261,0.351-0.428
					c0.003,2.823-0.035,5.706-0.035,8.564c-0.179-0.144-0.251-0.354-0.406-0.507c-0.184-0.182-0.442-0.314-0.759-0.385
					c0-0.067,0-0.136,0-0.205c-0.094,0-0.19,0-0.282,0c-0.162-0.658-0.615-1.084-1.403-1.12c-0.02-0.075,0.046-0.066,0.046-0.136
					c-0.004-0.08-0.118-0.127-0.114-0.225c0.003-0.078,0.167,0.006,0.159-0.08c0.009-0.062-0.068-0.048-0.101-0.034
					c0.061-0.115,0.258-0.094,0.271-0.261c-0.086-0.037-0.261-0.038-0.329,0.023c-0.009-0.101-0.223-0.085-0.159,0.035
					C221.739,31.344,221.887,31.136,221.799,31.055z"/>
				<path fill-rule="evenodd" clip-rule="evenodd" d="M208.333,33.894c-0.021-0.09-0.001-0.216-0.067-0.261
					c-1.007,0-2.014,0-3.022,0c-0.025,0.007-0.03,0.038-0.055,0.047c0,0.068,0,0.134,0,0.202c-0.078-0.004-0.131,0.023-0.205,0.023
					c0.027-0.089,0.118-0.096,0.079-0.225c0.096-0.025,0.164-0.078,0.171-0.194c0.026-0.006,0.064-0.002,0.111-0.011
					c0.062-0.111,0.062-0.286,0.193-0.329c0-0.033,0-0.067,0-0.101c0.088-0.071,0.191-0.126,0.271-0.203
					c0.036,0.004,0.051,0.032,0.092,0.032c0.468-0.18,1.262-0.178,1.729,0c0.042,0.007,0.056-0.011,0.082-0.022
					c0.102,0.055,0.188,0.127,0.28,0.192c0,0.029,0,0.062,0,0.091c0.117,0.057,0.137,0.204,0.184,0.329
					c0.035,0.023,0.097,0.013,0.124,0.021c0.005,0.116,0.07,0.171,0.169,0.194c-0.031,0.159,0.105,0.196,0.113,0.349
					c0.056,0.058,0.139,0.089,0.203,0.137c0.008,0.132-0.027,0.306,0.058,0.36c-0.059,0.028-0.163,0.004-0.237,0.013
					C208.505,34.333,208.707,33.828,208.333,33.894z"/>
				<path fill-rule="evenodd" clip-rule="evenodd" d="M224.63,37.923c0.187-0.937,1.316-0.935,2.453-0.918
					c0.048-0.004,0.219,0.006,0.09,0.012c-0.072,0-0.144,0-0.215,0c-1.058,0.025-2.004,0.217-2.341,0.926
					C224.615,37.932,224.618,37.926,224.63,37.923z"/>
				<path fill-rule="evenodd" clip-rule="evenodd" d="M217.398,27.636c-0.76-0.354-1.804-0.522-2.854-0.622
					c-0.007,0.066-0.105,0.073-0.215,0.067c-0.026,0.566-0.074,1.112-0.102,1.677c-0.158,0-0.316,0-0.476,0
					c0.016-0.551-0.029-1.167,0.023-1.699c-0.142-0.031-0.318-0.026-0.453-0.068c-0.007-0.226,0.02-0.514,0.047-0.747
					c0.283-0.002,0.531-0.041,0.815-0.043c-1.708-0.099-3.218,0.163-4.47,0.7c-0.452,0.193-0.921,0.464-1.291,0.802
					c-0.391,0.361-0.795,0.866-0.746,1.608c0.035,0.516,0.319,0.909,0.623,1.21c0.918,0.919,2.302,1.366,3.903,1.586
					c0.026-0.021,0.005-0.086,0.012-0.127c-0.943-0.064-1.812-0.236-2.477-0.597c-0.087-0.049-0.21-0.078-0.251-0.181
					c0.456-0.015,0.87,0.109,1.234,0.225c0.045-0.116-0.035-0.359,0.045-0.441c-0.282,0.116-0.605,0.133-0.883,0
					c-0.028-0.081,0.021-0.143,0.023-0.225c0.43-0.064,0.928-0.138,1.392-0.204c0.304-0.046,0.543-0.122,0.75,0.055
					c-0.112-0.141-0.317-0.289-0.489-0.407c-0.025,0.027-0.003,0.1-0.011,0.146c-0.709-0.022-1.419-0.042-2.115-0.08
					c0.036,0.214-0.051,0.406,0,0.568c0.045,0.144,0.378,0.216,0.429,0.338c-0.146-0.013-0.264,0.001-0.361-0.043
					c-0.105-0.052-0.189-0.191-0.272-0.284c-0.092-0.1-0.173-0.206-0.282-0.271c-0.062,0.043,0.048,0.146,0,0.216
					c-0.224-0.081-0.376-0.235-0.53-0.385c0.049-0.103,0.02-0.28,0.123-0.328c-0.028-0.176-0.079-0.329-0.114-0.499
					c-0.091-0.043-0.218-0.054-0.317-0.09c-0.026,0.109-0.042,0.228-0.067,0.34c-0.074-0.178-0.152-0.347-0.169-0.579
					c0.07-0.023,0.168-0.021,0.236-0.044c0.046-0.116,0.063-0.255,0.105-0.373c-0.111-0.074-0.224-0.141-0.341-0.207
					c0.043-0.129,0.076-0.269,0.181-0.337c0.141-0.029,0.267,0.224,0.419,0.182c0.1-0.03,0.07-0.24,0.057-0.364
					c-0.017-0.146-0.049-0.26-0.067-0.374c0.127-0.068,0.238-0.153,0.373-0.214c0.14,0.083,0.194,0.253,0.328,0.34
					c0.07-0.162,0.066-0.396,0.08-0.613c0.358-0.13,0.713-0.273,1.072-0.406c0.122,0.074,0.187,0.209,0.296,0.296
					c0.279-0.142,0.579-0.258,0.689-0.566c0.32-0.093,0.648-0.174,0.973-0.263c0.082,0.248,0.096,0.624,0.261,0.748
					c-0.49,0.145-0.974,0.295-1.48,0.419c0.47,0.491,1.01,0.913,1.48,1.403c-0.115,0.023-0.22,0.058-0.327,0.091
					c-0.564-0.429-1.101-0.883-1.652-1.323c-0.228,0.08-0.413,0.202-0.61,0.316c0.654,0.372,1.314,0.736,1.98,1.097
					c-0.074,0.088-0.17,0.155-0.251,0.239c-0.689-0.378-1.369-0.766-2.057-1.144c-0.564,0.337-1.066,0.778-0.986,1.72
					c0.043-0.17,0.043-0.386,0.069-0.576c0.876,0.138,1.732,0.296,2.601,0.442c-0.006,0.065-0.039,0.111-0.056,0.17
					c-0.76-0.175-1.576-0.288-2.354-0.442c-0.019,0.291-0.029,0.59-0.057,0.872c0.086,0.099,0.159,0.21,0.271,0.282
					c0.019-0.177,0.02-0.37,0.046-0.542c0.669,0.033,1.469,0.071,2.173,0.101c0.061,0.001,0.151,0.031,0.215,0.012
					c0.06-0.02,0.121-0.155,0.169-0.216c0.375-0.467,0.982-0.796,1.788-0.837c0.871-0.045,1.601,0.09,2.024,0.521
					c0.068,0.065,0.171,0.185,0.181,0.305c0.009,0.101-0.042,0.285-0.056,0.408c-0.015,0.135-0.037,0.267-0.044,0.42
					c0.249,0.141,0.539,0.244,0.779,0.396c0.025,0.121,0.01,0.295,0,0.418c-0.229,0.05-0.447,0.109-0.69,0.147
					c0.053-0.179,0.074-0.387,0.125-0.566c-0.069-0.072-0.146-0.134-0.227-0.194c-0.02,0.328-0.012,0.684-0.021,1.02
					c1.351-0.248,2.488-0.71,3.314-1.485c-0.026,0.292-0.058,0.571-0.091,0.861c-0.009,0.093-0.044,0.212-0.033,0.284
					c0.021,0.146,0.283,0.342,0.385,0.43c0.15,0.128,0.29,0.278,0.384,0.406c-0.186,0.047-0.675,0.296-0.406,0.486
					c0.031,0.225-0.054,0.489,0.056,0.646c0.056,0.077,0.135,0.062,0.193,0.146c-0.18,0.248-0.286,0.565-0.669,0.613
					c0,0.074,0,0.15,0,0.225c-0.017,0.018-0.064,0.009-0.101,0.012c0,0.039,0,0.081,0,0.122c-0.097,0-0.145,0.043-0.192,0.092
					c-0.044-0.036-0.096-0.062-0.148-0.092c-0.14,0.141-0.237,0.32-0.383,0.455c0.039,0.182-0.082,0.207-0.146,0.282
					c0.014,0.106,0.039,0.204,0.056,0.305c0.017,0.036,0.108-0.009,0.125,0.026c0.038,0.376,0.069,0.764,0.1,1.152
					c0.074,0,0.144,0,0.217,0c0,0.133,0,0.265,0,0.398c-0.224,0.014-0.488,0.02-0.735-0.025c-0.136-0.024-0.24-0.082-0.353-0.066
					c-0.1,0.014-0.184,0.098-0.271,0.157c-0.083,0.061-0.191,0.103-0.247,0.17c-0.077,0.091-0.109,0.238-0.171,0.35
					c-0.064,0.122-0.122,0.231-0.192,0.33c0.008,0.182-0.112,0.232-0.146,0.372c-0.184-0.026-0.284-0.142-0.431-0.203
					c-0.058-1.179-0.087-2.389-0.159-3.554c-0.024,0.357-0.004,0.645,0.013,0.997c0.006,0.131,0.002,0.385,0.011,0.464
					c-0.09-0.744-0.118-1.591-0.181-2.434c-0.049-0.614-0.099-1.203-0.149-1.822c-0.012-0.179,0.018-0.399-0.122-0.52
					c0.089,2.147,0.177,4.646,0.271,6.79c0.003,0.071-0.009,0.144,0,0.213c0.026,0.241,0.197,0.457,0.226,0.713
					c0.021,0.21-0.05,0.438-0.135,0.555c0.053,0.468,0.088,0.953,0.135,1.426c-0.017,0.039-0.087,0.026-0.089,0.079
					c0.033,0.208,0.105,0.438,0.282,0.464c-0.007,0.073-0.06,0.144-0.058,0.226c0.007,0.163,0.202,0.284,0.147,0.462
					c-0.134,0.056-0.312,0.047-0.476,0.057c-0.167,0.014-0.334,0.022-0.497,0.023c-0.034-0.078-0.119-0.145-0.113-0.259
					c0.008-0.093,0.255-0.412,0.34-0.419c0.08-0.007,0.088,0.092,0.16,0.092c-0.029-0.503,0.061-1.076-0.047-1.471
					c-0.063-0.238-0.468-0.311-0.69-0.431c-0.021-0.055-0.061-0.091-0.056-0.169c0.225-0.041,0.479-0.057,0.722-0.081
					c-0.047-0.234-0.081-0.496-0.146-0.746c-0.019-0.078-0.065-0.146-0.078-0.216c-0.033-0.198,0.032-0.393,0.023-0.588
					c-0.018-0.323-0.008-0.674-0.023-1.019c-0.085-1.94-0.183-4.395-0.259-6.145c-0.002-0.054,0.011-0.117,0-0.17
					c-0.028-0.117-0.142-0.179-0.193-0.294c-0.123,0.595-0.136,1.249-0.136,1.923c0,0.692-0.019,1.446,0.012,2.139
					c0.053,1.188-0.039,2.454,0.012,3.634c0.036,0.869-0.069,1.7-0.069,2.534c0,0.185,0.037,0.381-0.012,0.554
					c-0.014,0.053-0.064,0.096-0.078,0.159c-0.026,0.116-0.054,0.422-0.034,0.498c0.023,0.088,0.126,0.122,0.249,0.134
					c0.008,0.174-0.046,0.287-0.067,0.431c-0.295-0.042-0.601-0.071-0.896-0.115c0-0.795,0.099-1.614,0.184-2.353
					c0.026-0.239,0.072-0.486,0.067-0.714c-0.006-0.188-0.032-0.364-0.021-0.554c0.036-0.846,0.062-1.721,0.102-2.567
					c0.08-1.8,0.08-3.632,0.157-5.432c-0.065-0.039-0.15-0.056-0.237-0.07c-0.21,2.511-0.383,5.281-0.588,7.856
					c-0.035,0.42-0.091,0.824-0.091,1.232c0,0.233-0.037,0.49-0.058,0.747c-0.017,0.248-0.072,0.526-0.045,0.758
					c0.043,0.376,0.374,0.569,0.543,0.848c-0.062,0.154-0.17,0.259-0.237,0.408c-0.457-0.101-0.913-0.204-1.368-0.307
					c0.015-0.615-0.044-1.309,0.091-1.811c0.105-0.006,0.263,0.022,0.304-0.076c0.015-0.219-0.104-0.305-0.147-0.465
					c-0.079,0.044-0.209,0.036-0.203,0.168c-0.434,0.192-0.87,0.382-1.312,0.567c-0.041-0.86-0.073-1.731-0.102-2.603
					c0.262,0,0.546,0.08,0.825,0.08c0.12,0,0.249-0.038,0.364-0.013c0.139,0.031,0.243,0.199,0.383,0.205
					c0.08-0.112-0.067-0.129-0.158-0.181c-0.104-0.062-0.14-0.128-0.307-0.138c-0.132-0.005-0.271,0.027-0.417,0.012
					c0.224-0.052,0.523-0.028,0.758-0.068c0.033-0.138,0.09-0.307,0.067-0.451c-0.02-0.14-0.146-0.248-0.18-0.352
					c0.078-0.018,0.206,0.013,0.306,0.01c0-0.025,0-0.052,0-0.08c-0.077-0.097-0.332,0.031-0.386-0.09
					c-0.032-0.077,0.137-0.113,0.158-0.191c0.033-0.127-0.035-0.365-0.055-0.555c-0.023-0.21-0.015-0.402-0.069-0.543
					c-0.2,0.006-0.405-0.021-0.622,0c-0.67,0.064-1.39,0.064-1.799,0.328c-0.03-0.364-0.062-0.801-0.091-1.187
					c-0.02-0.261-0.002-0.464-0.146-0.588c-0.02-0.126,0.024-0.224,0-0.308c-0.034-0.103-0.178-0.109-0.248-0.169
					c0.029-0.1-0.096-0.181-0.115-0.237c-0.017-0.051,0.015-0.092-0.011-0.137c-0.026-0.045-0.105-0.052-0.148-0.1
					c-0.072-0.084-0.034-0.24-0.192-0.193c-0.067-0.093-0.044-0.275-0.183-0.293c-0.001-0.035,0.01-0.085-0.009-0.104
					c-0.082-0.112-0.223-0.133-0.318-0.226c-0.049-0.048-0.067-0.119-0.114-0.169c-0.162-0.195-0.372-0.316-0.697-0.353
					c0.013-0.305-0.698-0.305-0.682,0c-0.254,0.016-0.445,0.178-0.69,0.046c-0.004-0.245,0.121-0.451,0.092-0.656
					c-0.016-0.091-0.07-0.224-0.114-0.306c-0.127-0.242-0.555-0.332-0.826-0.18c-0.021-0.074-0.045-0.139-0.067-0.206
					c-0.02-0.059-0.07-0.139-0.067-0.191c0.002-0.076,0.099-0.183,0.146-0.248c0.06-0.089,0.119-0.162,0.179-0.217
					c0.094,0.005,0.177,0.002,0.217-0.045c-0.024-0.078-0.141-0.166-0.124-0.282c0.014-0.099,0.269-0.331,0.35-0.42
					c0.056-0.059,0.13-0.121,0.192-0.192c0.135-0.149,0.221-0.249,0.056-0.43c0.005-0.103,0.122-0.184,0.138-0.295
					c0.009-0.08-0.033-0.169-0.036-0.248c0-0.078,0.025-0.145,0.048-0.215c0.017-0.056,0.059-0.117,0.065-0.18
					c0.016-0.1-0.042-0.207-0.033-0.307c0.122-0.001,0.211-0.057,0.307-0.045c0.112,0.016,0.192,0.173,0.338,0.103
					c0.041-0.014,0.036-0.071,0.035-0.125c0.145-0.029,0.185-0.162,0.293-0.226c0.072,0.068,0.156,0.124,0.159,0.26
					c0.273-0.112,0.461-0.337,0.669-0.521c0.206-0.184,0.412-0.37,0.632-0.544c0.015-0.034,0.007-0.09,0.022-0.124
					c0.064-0.074,0.156-0.124,0.262-0.181c0.086-0.046,0.168-0.117,0.258-0.169c0.04-0.023,0.098-0.028,0.138-0.055
					c0.086-0.063,0.11-0.197,0.18-0.285c0.05-0.059,0.152-0.089,0.159-0.157c0.02-0.142-0.148-0.239-0.101-0.419
					c0.081-0.07,0.167-0.135,0.248-0.205c-0.03-0.252,0.135-0.32,0.192-0.497c0.038-0.113,0.038-0.215,0.045-0.385
					c-0.085-0.074-0.248-0.07-0.305-0.17c0.052-0.287,0.132-0.594,0.202-0.896c0.027-0.104,0.018-0.225,0.046-0.314
					c0.027-0.092,0.16-0.164,0.216-0.227c0.18,0.042,0.336,0.055,0.498,0.114c0.155,0.053,0.307,0.151,0.476,0.124
					c0.047-0.007,0.087-0.053,0.136-0.058c0.146-0.011,0.269,0.16,0.441,0.113c0.001-0.368-0.273-0.458-0.511-0.586
					c0.046-0.101,0.133-0.155,0.16-0.274c0.086,0.019,0.199,0.081,0.292,0.024c0.054-0.03-0.004-0.111,0.013-0.135
					c0.075-0.087,0.147-0.177,0.227-0.261c0.002-0.081-0.056-0.123-0.024-0.203c-0.064-0.032-0.175-0.021-0.27-0.022
					c0.032-0.146,0.124-0.229,0.102-0.431c0.107-0.058,0.226-0.105,0.35-0.148c0.015-0.049,0.013-0.115,0.013-0.18
					c0.079-0.083,0.125-0.198,0.236-0.251c-0.049-0.229,0.185-0.177,0.158-0.383c0.152-0.062,0.286-0.138,0.397-0.237
					c0.083,0.018,0.152,0.051,0.226,0.077c-0.069,0.225,0.078,0.326,0.146,0.454c0.053,0.096,0.059,0.26,0.081,0.397
					c0.005,0.039,0.036,0.108,0.034,0.146c-0.016,0.129-0.172,0.139-0.149,0.319c-0.171,0.139-0.24,0.382-0.382,0.554
					c0.095,0.136,0,0.334,0.032,0.462c0.054,0.218,0.301,0.241,0.407,0.409c0.329,0.039,0.578-0.09,0.827,0.012
					c0.054,0.02,0.096,0.055,0.146,0.079c0.038,0.016,0.081,0.008,0.125,0.021c0.052,0.019,0.096,0.072,0.146,0.092
					c0.043,0.015,0.096,0.006,0.135,0.022c0.175,0.064,0.333,0.155,0.488,0.214c-0.026,0.141-0.138,0.191-0.114,0.375
					c0.016,0.113,0.114,0.271,0.183,0.406c0.129,0.259,0.265,0.492,0.396,0.771c0.059,0.128,0.164,0.302,0.168,0.407
					c0.005,0.089-0.057,0.231-0.09,0.34c-0.073,0.244-0.125,0.389-0.156,0.69c-0.025,0.207-0.062,0.459,0.123,0.485
					c-0.292-0.017-0.625-0.089-0.962-0.099c-0.026,0.25,0.013,0.538,0.023,0.79c0.369-0.049,0.72-0.12,1.099-0.169
					c0-0.196,0-0.393,0-0.589c0.366,0.076,0.696,0.193,1.062,0.273c-0.079,0.112-0.182,0.201-0.25,0.328
					c0.3,0.091,0.6,0.188,0.895,0.284c0.297,0.096,0.618,0.162,0.859,0.315c0.304,0.192,0.509,0.569,0.668,0.894
					c0.175,0.357,0.309,0.74,0.417,1.143c-0.179-0.11-0.593,0.039-0.848,0.091c-0.68,0.141-1.413,0.284-2.061,0.419
					c-0.056-0.024-0.051-0.109-0.089-0.148c0.917-0.178,1.828-0.361,2.785-0.5c0.007-0.19-0.066-0.303-0.149-0.406
					c-0.859,0.23-1.689,0.491-2.547,0.725c-0.051-0.034-0.051-0.122-0.089-0.169c0.791-0.294,1.616-0.556,2.422-0.836
					c-0.053-0.098-0.176-0.227-0.272-0.318c-0.775,0.334-1.556,0.663-2.319,1.005c-0.05-0.044-0.121-0.122-0.123-0.179
					c0.727-0.353,1.439-0.723,2.159-1.086c-0.161-0.146-0.364-0.257-0.553-0.375c-0.648,0.441-1.257,0.916-1.892,1.37
					c-0.118-0.033-0.255-0.053-0.359-0.101c-0.019-0.019,0.042-0.062,0.078-0.091c0.55-0.438,1.148-0.91,1.697-1.358
					C217.202,27.558,217.302,27.596,217.398,27.636z M212.215,30.771c-0.051-0.044-0.09-0.133-0.168-0.135
					c-0.137-0.005-0.355,0.099-0.533,0.146c-0.196,0.055-0.383,0.098-0.533,0.147c0,0.169,0,0.34,0,0.509
					c0.242,0.063,0.413,0.197,0.647,0.271c-0.017-0.16-0.059-0.296-0.08-0.453c0.101-0.033,0.203-0.127,0.283-0.145
					c0,0.213,0,0.429,0,0.645c0.08,0,0.157,0,0.236,0c0.009-0.25-0.015-0.528,0.012-0.759c0.045,0,0.09,0,0.137,0
					C212.215,30.921,212.215,30.846,212.215,30.771z M212.315,36.519c-0.008,0.206,0.001,0.421-0.021,0.611
					c-0.007,0.056-0.024,0.091-0.045,0.138c0.066,0.3-0.022,0.705,0,1.072c-0.217,0.098-0.075,0.459-0.081,0.636
					c-0.001,0.115-0.079,0.203-0.045,0.317c0.106-0.073,0.38-0.139,0.407-0.295c0.021-0.106-0.033-0.266-0.045-0.384
					c-0.035-0.39,0-0.687,0.045-1.064c0.188-1.545,0.377-3.198,0.544-4.719c-0.108,0.047-0.189,0.108-0.227,0.205
					c-0.086,0.215,0.042,0.437,0.069,0.634c0.026,0.208-0.041,0.458-0.092,0.688c-0.047,0.223-0.094,0.442-0.123,0.657
					c-0.104,0.721-0.255,1.407-0.25,2.228c0.001,0.22,0.048,0.503,0.011,0.682c-0.07,0.34-0.138,0.677-0.157,1.018
					c0.056-2.581,0.168-5.166,0.214-7.719C212.456,32.953,212.389,34.769,212.315,36.519z M212.102,39.631
					c0.023,0.041-0.004,0.191,0.021,0.192c-0.008-0.125,0.015-0.337-0.01-0.408C212.112,39.49,212.117,39.573,212.102,39.631z"/>
			</g>
			<path d="M235.361,14.443c3.41,0,6.182,2.773,6.182,6.18v33.351c0,3.407-2.772,6.182-6.182,6.182h-33.157
				c-3.406,0-6.18-2.774-6.18-6.182V20.623c0-3.406,2.773-6.18,6.18-6.18H235.361 M235.361,12.695h-33.157
				c-4.358,0-7.926,3.568-7.926,7.928v33.351c0,4.361,3.567,7.929,7.926,7.929h33.157c4.363,0,7.931-3.568,7.931-7.929V20.623
				C243.292,16.263,239.725,12.695,235.361,12.695"/>
			<g>
				<path d="M209.466,50.016h3.546v0.932h-2.438v1.165h2.111v0.862h-2.111v2.083h-1.108V50.016z"/>
				<path d="M213.652,50.016h1.559l1.18,3.468h0.015l1.115-3.468h1.564v5.042h-1.04v-3.573h-0.013l-1.236,3.573h-0.855l-1.235-3.538
					h-0.016v3.538h-1.037V50.016z"/>
				<path d="M220.054,50.016h2.274c1.257,0,1.745,0.798,1.745,1.617c0,0.819-0.488,1.618-1.745,1.618h-1.165v1.808h-1.109V50.016z
					 M221.163,52.389h0.861c0.516,0,0.975-0.112,0.975-0.756c0-0.642-0.459-0.755-0.975-0.755h-0.861V52.389z"/>
				<path d="M225.878,50.948h-1.511v-0.932h4.13v0.932h-1.511v4.11h-1.108V50.948z"/>
			</g>
		</g>
		<g>
			<g>
				<path d="M252.49,23.825h5.092v1.338h-3.497v1.675h3.032v1.236h-3.032v2.993h-1.595V23.825z"/>
				<path d="M261.241,23.652c2.242,0,3.561,1.674,3.561,3.825c0,2.088-1.319,3.763-3.561,3.763c-2.241,0-3.56-1.674-3.56-3.763
					C257.681,25.326,259,23.652,261.241,23.652z M261.241,29.899c1.43,0,1.967-1.217,1.967-2.422c0-1.269-0.537-2.486-1.967-2.486
					c-1.431,0-1.967,1.218-1.967,2.486C259.274,28.682,259.81,29.899,261.241,29.899z"/>
				<path d="M265.374,23.825h1.584l3.021,4.857h0.022v-4.857h1.49v7.242h-1.592l-3.013-4.848h-0.021v4.848h-1.492V23.825z"/>
				<path d="M272.379,23.825h3.125c1.877,0,3.286,1.176,3.286,3.581c0,2.099-1.076,3.661-3.286,3.661h-3.125V23.825z
					 M273.974,29.727h1.418c0.923,0,1.807-0.567,1.807-2.17c0-1.461-0.509-2.394-2.091-2.394h-1.134V29.727z"/>
				<path d="M282.628,23.652c2.242,0,3.562,1.674,3.562,3.825c0,2.088-1.32,3.763-3.562,3.763c-2.239,0-3.558-1.674-3.558-3.763
					C279.07,25.326,280.389,23.652,282.628,23.652z M282.628,29.899c1.433,0,1.969-1.217,1.969-2.422
					c0-1.269-0.536-2.486-1.969-2.486c-1.428,0-1.965,1.218-1.965,2.486C280.663,28.682,281.2,29.899,282.628,29.899z"/>
				<path d="M289.072,23.825h2.245l1.693,4.979h0.02l1.604-4.979h2.24v7.242h-1.491v-5.131h-0.02l-1.774,5.131h-1.227l-1.777-5.082
					h-0.019v5.082h-1.494V23.825z"/>
				<path d="M297.762,23.825h1.593v7.242h-1.593V23.825z"/>
				<path d="M302.02,27.272l-2.333-3.447h1.847l1.419,2.313l1.472-2.313h1.745l-2.323,3.458l2.524,3.784h-1.896l-1.585-2.504
					l-1.611,2.504h-1.795L302.02,27.272z"/>
				<path d="M308.102,25.163h-2.171v-1.338h5.934v1.338h-2.17v5.904h-1.593V25.163z"/>
				<path d="M315.431,23.652c2.244,0,3.561,1.674,3.561,3.825c0,2.088-1.317,3.763-3.561,3.763c-2.241,0-3.559-1.674-3.559-3.763
					C311.872,25.326,313.189,23.652,315.431,23.652z M315.431,29.899c1.432,0,1.969-1.217,1.969-2.422
					c0-1.269-0.537-2.486-1.969-2.486c-1.43,0-1.966,1.218-1.966,2.486C313.465,28.682,314.001,29.899,315.431,29.899z"/>
				<path d="M252.49,33.156h3.125c1.877,0,3.285,1.177,3.285,3.581c0,2.099-1.074,3.662-3.285,3.662h-3.125V33.156z M254.085,39.059
					h1.418c0.924,0,1.807-0.567,1.807-2.17c0-1.46-0.509-2.394-2.089-2.394h-1.136V39.059z"/>
				<path d="M259.494,33.156h5.419v1.339h-3.823v1.552h3.509v1.237h-3.509v1.775h3.904v1.34h-5.5V33.156z"/>
				<path d="M267.869,33.156h3.265c1.806,0,2.505,1.147,2.505,2.323c0,1.177-0.699,2.323-2.505,2.323h-1.673v2.597h-1.592V33.156z
					 M269.461,36.565h1.236c0.741,0,1.402-0.162,1.402-1.086c0-0.922-0.661-1.084-1.402-1.084h-1.236V36.565z"/>
				<path d="M274.123,33.156h3.905c1.3,0,2.12,0.903,2.12,1.999c0,0.854-0.346,1.491-1.145,1.815v0.021
					c0.78,0.204,1.003,0.964,1.055,1.694c0.029,0.457,0.021,1.309,0.304,1.714h-1.593c-0.192-0.458-0.173-1.157-0.253-1.735
					c-0.113-0.761-0.406-1.095-1.206-1.095h-1.593v2.83h-1.594V33.156z M275.717,36.433h1.743c0.711,0,1.097-0.305,1.097-1.035
					c0-0.7-0.386-1.003-1.097-1.003h-1.743V36.433z"/>
				<path d="M284.18,32.984c2.242,0,3.561,1.673,3.561,3.823c0,2.09-1.319,3.764-3.561,3.764c-2.24,0-3.559-1.674-3.559-3.764
					C280.621,34.657,281.939,32.984,284.18,32.984z M284.18,39.231c1.432,0,1.97-1.217,1.97-2.424c0-1.268-0.538-2.484-1.97-2.484
					c-1.43,0-1.966,1.216-1.966,2.484C282.214,38.015,282.75,39.231,284.18,39.231z"/>
				<path d="M288.314,33.156h2.242l1.693,4.98h0.02l1.605-4.98h2.24v7.243h-1.492v-5.133h-0.018l-1.777,5.133h-1.225l-1.775-5.082
					h-0.02v5.082h-1.492V33.156z"/>
				<path d="M300.248,32.984c2.241,0,3.56,1.673,3.56,3.823c0,2.09-1.318,3.764-3.56,3.764c-2.242,0-3.56-1.674-3.56-3.764
					C296.688,34.657,298.006,32.984,300.248,32.984z M300.248,39.231c1.43,0,1.968-1.217,1.968-2.424
					c0-1.268-0.538-2.484-1.968-2.484c-1.432,0-1.968,1.216-1.968,2.484C298.28,38.015,298.816,39.231,300.248,39.231z"/>
				<path d="M309.209,35.59c-0.102-0.719-0.791-1.268-1.581-1.268c-1.432,0-1.968,1.216-1.968,2.484
					c0,1.208,0.536,2.424,1.968,2.424c0.974,0,1.52-0.668,1.642-1.623h1.542c-0.161,1.806-1.409,2.962-3.184,2.962
					c-2.241,0-3.562-1.674-3.562-3.764c0-2.15,1.32-3.823,3.562-3.823c1.591,0,2.933,0.934,3.124,2.606H309.209z"/>
				<path d="M311.386,33.156h1.594v7.243h-1.594V33.156z"/>
				<path d="M317.114,32.984c2.243,0,3.561,1.673,3.561,3.823c0,2.09-1.318,3.764-3.561,3.764c-2.242,0-3.56-1.674-3.56-3.764
					C313.555,34.657,314.872,32.984,317.114,32.984z M317.114,39.231c1.431,0,1.969-1.217,1.969-2.424
					c0-1.268-0.538-2.484-1.969-2.484c-1.429,0-1.967,1.216-1.967,2.484C315.147,38.015,315.685,39.231,317.114,39.231z
					 M317.358,32.508h-1.005l0.973-1.441h1.593L317.358,32.508z"/>
				<path d="M321.249,33.156h1.581l3.023,4.858h0.02v-4.858h1.492v7.243h-1.593l-3.013-4.848h-0.022v4.848h-1.489V33.156z"/>
				<path d="M332.167,34.495h-2.171v-1.339h5.934v1.339h-2.17v5.904h-1.593V34.495z"/>
				<path d="M342.398,37.661c0,1.957-1.158,2.911-3.095,2.911c-1.947,0-3.082-0.944-3.082-2.911v-4.504h1.592v4.504
					c0,0.791,0.201,1.571,1.49,1.571c1.137,0,1.502-0.496,1.502-1.571v-4.504h1.593V37.661z"/>
				<path d="M343.255,33.156h3.906c1.298,0,2.117,0.903,2.117,1.999c0,0.854-0.342,1.491-1.143,1.815v0.021
					c0.78,0.204,1.003,0.964,1.054,1.694c0.03,0.457,0.022,1.309,0.304,1.714H347.9c-0.192-0.458-0.172-1.157-0.252-1.735
					c-0.112-0.761-0.406-1.095-1.208-1.095h-1.593v2.83h-1.593V33.156z M344.848,36.433h1.746c0.708,0,1.094-0.305,1.094-1.035
					c0-0.7-0.386-1.003-1.094-1.003h-1.746V36.433z"/>
				<path d="M350.066,33.156h1.593v7.243h-1.593V33.156z M351.102,32.508h-1.005l0.974-1.441h1.593L351.102,32.508z"/>
				<path d="M353.636,37.995c0,0.963,0.751,1.338,1.604,1.338c0.558,0,1.409-0.164,1.409-0.903c0-0.781-1.085-0.913-2.15-1.197
					c-1.074-0.283-2.16-0.7-2.16-2.059c0-1.48,1.399-2.19,2.708-2.19c1.511,0,2.901,0.659,2.901,2.332h-1.543
					c-0.051-0.873-0.668-1.095-1.429-1.095c-0.507,0-1.096,0.212-1.096,0.822c0,0.558,0.345,0.628,2.161,1.095
					c0.526,0.132,2.15,0.466,2.15,2.109c0,1.329-1.046,2.323-3.014,2.323c-1.602,0-3.103-0.792-3.083-2.576H353.636z"/>
				<path d="M360.226,34.495h-2.171v-1.339h5.932v1.339h-2.168v5.904h-1.593V34.495z"/>
				<path d="M364.31,33.156h1.592v7.243h-1.592V33.156z"/>
				<path d="M371.62,35.59c-0.102-0.719-0.79-1.268-1.582-1.268c-1.431,0-1.967,1.216-1.967,2.484c0,1.208,0.536,2.424,1.967,2.424
					c0.974,0,1.521-0.668,1.643-1.623h1.543c-0.164,1.806-1.411,2.962-3.186,2.962c-2.241,0-3.561-1.674-3.561-3.764
					c0-2.15,1.319-3.823,3.561-3.823c1.594,0,2.933,0.934,3.126,2.606H371.62z"/>
				<path d="M375.775,33.156h1.633l2.71,7.243h-1.655l-0.548-1.613h-2.707l-0.568,1.613h-1.613L375.775,33.156z M375.623,37.599
					h1.876l-0.912-2.657h-0.021L375.623,37.599z"/>
				<path d="M252.49,42.489h3.125c1.877,0,3.285,1.176,3.285,3.581c0,2.099-1.074,3.661-3.285,3.661h-3.125V42.489z M254.085,48.391
					h1.418c0.924,0,1.807-0.566,1.807-2.17c0-1.46-0.509-2.394-2.089-2.394h-1.136V48.391z"/>
				<path d="M259.494,42.489h5.419v1.338h-3.823v1.552h3.509v1.238h-3.509v1.774h3.904v1.34h-5.5V42.489z"/>
				<path d="M265.558,42.489h1.594v5.902h3.528v1.34h-5.122V42.489z"/>
				<path d="M273.373,42.489h3.125c1.876,0,3.286,1.176,3.286,3.581c0,2.099-1.075,3.661-3.286,3.661h-3.125V42.489z
					 M274.965,48.391h1.421c0.924,0,1.805-0.566,1.805-2.17c0-1.46-0.507-2.394-2.089-2.394h-1.137V48.391z"/>
				<path d="M280.377,42.489h1.594v7.242h-1.594V42.489z"/>
				<path d="M283.947,47.326c0,0.964,0.749,1.34,1.602,1.34c0.559,0,1.41-0.164,1.41-0.903c0-0.78-1.086-0.913-2.15-1.197
					c-1.075-0.284-2.16-0.7-2.16-2.059c0-1.481,1.4-2.191,2.709-2.191c1.51,0,2.899,0.658,2.899,2.333h-1.542
					c-0.051-0.872-0.669-1.095-1.429-1.095c-0.508,0-1.096,0.211-1.096,0.822c0,0.557,0.343,0.628,2.159,1.095
					c0.529,0.131,2.151,0.466,2.151,2.108c0,1.33-1.044,2.324-3.013,2.324c-1.603,0-3.103-0.792-3.084-2.578H283.947z"/>
				<path d="M290.535,43.827h-2.171v-1.338h5.934v1.338h-2.169v5.904h-1.594V43.827z"/>
				<path d="M294.619,42.489h3.906c1.298,0,2.119,0.903,2.119,1.998c0,0.853-0.344,1.491-1.145,1.815v0.021
					c0.78,0.205,1.003,0.965,1.055,1.695c0.029,0.455,0.02,1.307,0.303,1.713h-1.591c-0.193-0.457-0.173-1.157-0.255-1.734
					c-0.11-0.762-0.405-1.095-1.206-1.095h-1.593v2.83h-1.593V42.489z M296.212,45.765h1.744c0.712,0,1.096-0.305,1.096-1.035
					c0-0.7-0.384-1.003-1.096-1.003h-1.744V45.765z"/>
				<path d="M301.431,42.489h1.594v7.242h-1.594V42.489z"/>
				<path d="M305.518,43.827h-2.171v-1.338h5.933v1.338h-2.169v5.904h-1.593V43.827z"/>
				<path d="M312.847,42.316c2.243,0,3.56,1.674,3.56,3.823c0,2.089-1.316,3.764-3.56,3.764c-2.24,0-3.56-1.675-3.56-3.764
					C309.287,43.99,310.606,42.316,312.847,42.316z M312.847,48.563c1.43,0,1.968-1.216,1.968-2.424
					c0-1.268-0.538-2.484-1.968-2.484c-1.43,0-1.968,1.216-1.968,2.484C310.879,47.347,311.417,48.563,312.847,48.563z"/>
				<path d="M319.291,42.489h5.092v1.338h-3.497v1.674h3.031v1.237h-3.031v2.992h-1.595V42.489z"/>
				<path d="M324.796,42.489h5.416v1.338h-3.823v1.552h3.51v1.238h-3.51v1.774h3.905v1.34h-5.498V42.489z"/>
				<path d="M330.857,42.489h3.124c1.876,0,3.288,1.176,3.288,3.581c0,2.099-1.076,3.661-3.288,3.661h-3.124V42.489z
					 M332.449,48.391h1.422c0.922,0,1.805-0.566,1.805-2.17c0-1.46-0.506-2.394-2.09-2.394h-1.137V48.391z"/>
				<path d="M337.863,42.489h5.416v1.338h-3.825v1.552h3.51v1.238h-3.51v1.774h3.906v1.34h-5.497V42.489z"/>
				<path d="M343.924,42.489h3.905c1.299,0,2.121,0.903,2.121,1.998c0,0.853-0.347,1.491-1.147,1.815v0.021
					c0.78,0.205,1.005,0.965,1.055,1.695c0.03,0.455,0.019,1.307,0.305,1.713h-1.593c-0.194-0.457-0.174-1.157-0.255-1.734
					c-0.111-0.762-0.405-1.095-1.206-1.095h-1.593v2.83h-1.593V42.489z M345.517,45.765h1.744c0.711,0,1.097-0.305,1.097-1.035
					c0-0.7-0.386-1.003-1.097-1.003h-1.744V45.765z"/>
				<path d="M352.714,42.489h1.634l2.708,7.242h-1.654l-0.548-1.613h-2.707l-0.567,1.613h-1.614L352.714,42.489z M352.561,46.931
					h1.878l-0.914-2.657h-0.021L352.561,46.931z"/>
				<path d="M357.172,42.489h1.595v5.902h3.528v1.34h-5.123V42.489z"/>
			</g>
		</g>
	</g>
	<path stroke="#D1D3D4" stroke-width="0.446" stroke-miterlimit="10" d="M177.886,61.678V12.917"/>
</g>
</svg>
