<?xml version="1.0" encoding="utf-8"?>
<!-- Generator: Adobe Illustrator 17.0.0, SVG Export Plug-In . SVG Version: 6.00 Build 0)  -->
<!DOCTYPE svg PUBLIC "-//W3C//DTD SVG 1.1//EN" "http://www.w3.org/Graphics/SVG/1.1/DTD/svg11.dtd">
<svg version="1.1" id="Layer_1" xmlns="http://www.w3.org/2000/svg" xmlns:xlink="http://www.w3.org/1999/xlink" x="0px" y="0px"
	 width="461.654px" height="81.203px" viewBox="0 0 461.654 81.203" enable-background="new 0 0 461.654 81.203"
	 xml:space="preserve">
<g>
	<g>
		<path d="M14.365,40.156c0,11.675,9.72,21.76,22.573,23.335l0.623,0.1V16.774l-0.623,0.079
			C24.085,18.422,14.365,28.46,14.365,40.156z"/>
		<polygon points="37.847,63.591 83.782,63.591 61.087,16.774 		"/>
	</g>
	<g>
		<path d="M116.62,63.823c-12.689,0-21.158-6.556-21.158-22.473c0-13.904,8.732-21.897,22.716-21.897
			c3.666,0,6.503,0.608,10.307,2.303l-3.514,8.679c-2.699-1.025-4.918-1.5-6.793-1.5c-4.538,0-10.608,2.604-10.608,12.204
			c0,11.047,4.924,13.049,9.256,13.049c3.17,0,5.737-0.756,8.574-1.797l3.276,9.155C124.935,63.184,121.264,63.823,116.62,63.823z"
			/>
		<path d="M150.679,63.823c-14.047,0-19.79-11.189-19.79-22.151c0-12.615,7.929-22.437,19.79-22.437
			c13.968,0,19.837,11.342,19.837,22.437C170.516,54.224,162.375,63.823,150.679,63.823z M150.256,29.131
			c-6.752,0-7.106,7.111-7.19,11.332c0,4.908,0.269,14.01,7.977,14.01c6.81,0,7.142-7.502,7.142-11.855
			C158.186,37.763,158.054,29.131,150.256,29.131z"/>
		<path d="M205.71,62.799L190.337,40.33l0.349,22.469h-11.4V20.647h11.4l14.882,21.58l-0.508-21.58h11.337v42.152H205.71z"/>
		<path d="M252.813,63.099l-2.726-8.717h-12.441l-2.948,8.717l-11.696-0.301l15.865-42.152h11.268l14.554,42.152L252.813,63.099z
			 M243.916,33.6l-3.492,12.055h7.069L243.916,33.6z"/>
		<path d="M286.914,63.823c-12.764,0-21.195-6.556-21.195-22.473c0-13.904,8.733-21.897,22.727-21.897
			c3.661,0,6.498,0.608,10.312,2.303l-3.544,8.679c-2.663-1.025-4.892-1.5-6.767-1.5c-4.559,0-10.634,2.604-10.634,12.204
			c0,11.047,4.923,13.049,9.271,13.049c3.207,0,5.785-0.756,8.58-1.797l3.318,9.155C295.144,63.184,291.51,63.823,286.914,63.823z"
			/>
		<path d="M322.758,63.676c-10.323,0-17.909-5.901-17.909-15.289v-27.74h11.734v27.957c0,2.985,2.461,5.78,6.176,5.78
			c3.687,0,5.996-2.573,5.996-5.943V20.647h11.881v27.74C340.635,58.255,331.533,63.676,322.758,63.676z"/>
		<path d="M353.098,62.799V20.647h11.76v32.659h14.502v9.493H353.098z"/>
		<path d="M400.268,30.435v32.363h-11.849V30.435h-11.659v-9.789h35.353v9.789H400.268z"/>
		<path d="M437.888,63.099l-2.705-8.717H422.71l-2.868,8.717l-11.712-0.301l15.849-42.152h11.263l14.491,42.152L437.888,63.099z
			 M429.023,33.6l-3.518,12.055h7.085L429.023,33.6z"/>
	</g>
</g>
</svg>
