<?xml version="1.0" encoding="utf-8"?>
<!-- Generator: Adobe Illustrator 17.0.0, SVG Export Plug-In . SVG Version: 6.00 Build 0)  -->
<!DOCTYPE svg PUBLIC "-//W3C//DTD SVG 1.1//EN" "http://www.w3.org/Graphics/SVG/1.1/DTD/svg11.dtd">
<svg version="1.1" id="Layer_1" xmlns="http://www.w3.org/2000/svg" xmlns:xlink="http://www.w3.org/1999/xlink" x="0px" y="0px"
	 width="153.237px" height="84.892px" viewBox="0 0 153.237 84.892" enable-background="new 0 0 153.237 84.892"
	 xml:space="preserve">
<g>
	<g>
		<path d="M22.671,9.26h4.524v1.131h-3.318v2.146h3.149v1.125h-3.149v2.416h3.341v1.102h-4.547V9.26z"/>
		<path d="M38.691,16.603l0.609-0.951c0.4,0.247,1.12,0.548,2.071,0.548c0.98,0,1.404-0.391,1.404-1.076
			c0-0.835-0.429-1.035-1.717-1.517c-1.357-0.513-2.065-1.027-2.065-2.291c0-1.363,0.882-2.146,2.506-2.146
			c0.968,0,1.63,0.171,2.198,0.447l-0.545,1.061c-0.383-0.191-0.911-0.339-1.636-0.339c-0.905,0-1.311,0.339-1.311,0.945
			c0,0.67,0.331,0.864,1.415,1.297c1.694,0.67,2.361,1.061,2.361,2.52c0,1.346-0.847,2.166-2.592,2.166
			C40.146,17.267,39.276,16.997,38.691,16.603z"/>
		<path d="M56.125,10.391h-2.192V9.26h5.643v1.131h-2.198v6.789h-1.253V10.391z"/>
		<path d="M71.048,14.5V9.26h1.23v5.13c0,1.183,0.313,1.775,1.578,1.775c1.247,0,1.583-0.568,1.583-1.775V9.26h1.195v5.24
			c0,1.789-0.632,2.784-2.796,2.784C71.704,17.284,71.048,16.289,71.048,14.5z"/>
		<path d="M88.611,9.26h2.297c2.517,0,3.242,1.174,3.242,3.955c0,2.842-0.719,3.964-3.248,3.964h-2.291V9.26z M90.989,16.098
			c1.531,0,1.92-0.818,1.92-2.868s-0.383-2.839-1.92-2.839h-1.137v5.707H90.989z"/>
		<path d="M105.489,9.26h1.241v7.92h-1.241V9.26z"/>
		<path d="M120.557,13.23c0-2.181,0.366-4.06,3.097-4.06c2.715,0,3.091,1.879,3.091,4.06c0,2.175-0.377,4.037-3.091,4.037
			C120.923,17.267,120.557,15.405,120.557,13.23z M125.499,13.259c0-1.673-0.192-2.889-1.844-2.889c-1.67,0-1.85,1.215-1.85,2.889
			c0,1.688,0.18,2.906,1.85,2.906C125.307,16.165,125.499,14.946,125.499,13.259z"/>
	</g>
	<g>
		<g>
			<path d="M24.504,68.42h2.802c1.734,0,2.436,0.835,2.436,2.459c0,1.586-0.696,2.595-2.459,2.595h-1.56v2.862h-1.218V68.42z
				 M27.253,72.36c0.882,0,1.264-0.388,1.264-1.424c0-1.044-0.383-1.406-1.264-1.406h-1.531v2.83H27.253z"/>
			<path d="M44.635,68.361h1.299l2.453,7.975h-1.282l-0.441-1.508h-2.813l-0.441,1.508H42.17L44.635,68.361z M46.364,73.703
				l-1.096-3.634l-1.108,3.634H46.364z"/>
			<path d="M62.505,73.425h-1.334v2.912h-1.218V68.42h2.784c1.729,0,2.436,0.815,2.436,2.413c0,1.241-0.429,2.126-1.456,2.448
				l1.369,3.057h-1.299L62.505,73.425z M62.702,72.306c0.876,0,1.258-0.371,1.258-1.392c0-1.021-0.383-1.383-1.258-1.383h-1.531
				v2.775H62.702z"/>
			<path d="M78.565,68.361h1.317l2.448,7.975h-1.27l-0.452-1.508h-2.813l-0.447,1.508h-1.224L78.565,68.361z M80.3,73.703
				l-1.085-3.634l-1.119,3.634H80.3z"/>
			<path d="M96.139,68.42h1.241v7.917h-1.241V68.42z"/>
			<path d="M109.392,75.762l0.632-0.954c0.4,0.249,1.108,0.551,2.065,0.551c0.974,0,1.409-0.391,1.409-1.073
				c0-0.844-0.435-1.041-1.723-1.52c-1.369-0.513-2.065-1.044-2.065-2.291c0-1.366,0.87-2.146,2.5-2.146
				c0.968,0,1.624,0.171,2.204,0.447l-0.534,1.061c-0.4-0.191-0.922-0.357-1.647-0.357c-0.916,0-1.299,0.357-1.299,0.951
				c0,0.682,0.319,0.873,1.403,1.291c1.694,0.684,2.366,1.079,2.366,2.538c0,1.343-0.853,2.16-2.592,2.16
				C110.883,76.42,110.001,76.154,109.392,75.762z"/>
			<path d="M125.128,72.387c0-2.192,0.371-4.057,3.091-4.057c2.714,0,3.091,1.865,3.091,4.057c0,2.175-0.377,4.034-3.091,4.034
				C125.499,76.42,125.128,74.562,125.128,72.387z M130.063,72.416c0-1.688-0.192-2.9-1.844-2.9c-1.664,0-1.844,1.212-1.844,2.9
				c0,1.685,0.18,2.906,1.844,2.906C129.872,75.321,130.063,74.101,130.063,72.416z"/>
		</g>
	</g>
	<polygon points="122.848,21.39 122.848,36.195 106.318,21.39 106.318,36.195 89.788,21.39 89.788,36.195 73.27,21.39 73.27,36.195 
		56.752,21.39 56.752,36.195 40.233,21.39 40.233,36.195 23.703,21.39 23.703,42.517 7.179,42.517 31.087,63.927 31.087,49.129 
		47.611,63.927 47.611,49.129 64.135,63.927 64.135,49.129 80.653,63.927 80.653,49.129 97.177,63.927 97.177,49.129 
		113.696,63.927 113.696,49.129 130.226,63.927 130.226,42.804 146.756,42.804 	"/>
</g>
</svg>
