<?xml version="1.0" encoding="utf-8"?>
<!-- Generator: Adobe Illustrator 17.0.0, SVG Export Plug-In . SVG Version: 6.00 Build 0)  -->
<!DOCTYPE svg PUBLIC "-//W3C//DTD SVG 1.1//EN" "http://www.w3.org/Graphics/SVG/1.1/DTD/svg11.dtd">
<svg version="1.1" id="Layer_1" xmlns="http://www.w3.org/2000/svg" xmlns:xlink="http://www.w3.org/1999/xlink" x="0px" y="0px"
	 width="442.857px" height="91.729px" viewBox="0 0 442.857 91.729" enable-background="new 0 0 442.857 91.729"
	 xml:space="preserve">
<path d="M46.983,11.687c-17.815,1.09-31.928,15.876-31.928,33.965s14.113,32.875,31.928,33.966V11.687z"/>
<polygon points="81.882,11.687 115.728,79.618 66.734,79.618 66.734,55.048 78.814,55.048 78.814,36.256 66.734,36.256 
	66.734,29.449 85.43,29.449 "/>
<polygon points="139.888,16.409 182.267,16.409 182.267,31.27 157.818,31.27 157.818,41.625 179.774,41.625 179.774,55.911 
	157.722,55.911 157.722,79.618 139.888,79.618 "/>
<path d="M216.303,14.396c-16.362,0-29.626,12.847-29.626,33.269c0,21.477,13.264,33.27,29.626,33.27
	c16.363,0,29.626-13.615,29.626-33.27C245.93,26.285,232.666,14.396,216.303,14.396z M216.207,66.841
	c-5.561,0-11.218-3.931-11.218-18.888c0-11.594,2.205-18.888,11.218-18.888c5.561,0,11.218,3.931,11.218,18.888
	C227.425,59.547,225.22,66.841,216.207,66.841z"/>
<polygon points="290.245,16.409 290.992,48.432 268.865,16.409 251.874,16.409 251.874,79.497 268.912,79.497 268.269,46.273 
	291.336,79.497 307.195,79.497 307.195,16.409 "/>
<path d="M363.859,18.039c0,0-7.095-3.356-14.19-3.356c-7.095,0-34.132,0.288-34.995,33.269
	c0.671,34.612,28.476,32.886,32.599,32.886s12.081-0.671,16.97-3.452c-4.986-13.806-4.986-13.806-4.986-13.806
	S333.466,76.237,332.699,49.2c0-15.724,7.382-20.326,15.82-20.326c7.095,0.192,10.067,2.397,10.067,2.397L363.859,18.039z"/>
<path d="M409.209,16.601h-16.778L369.228,79.21h17.066l4.411-12.368h18.121l4.315,12.368h17.737L409.209,16.601z M394.828,53.61
	l5.177-17.45l5.177,17.45H394.828z"/>
</svg>
