<?xml version="1.0" encoding="utf-8"?>
<!-- Generator: Adobe Illustrator 17.0.0, SVG Export Plug-In . SVG Version: 6.00 Build 0)  -->
<!DOCTYPE svg PUBLIC "-//W3C//DTD SVG 1.1//EN" "http://www.w3.org/Graphics/SVG/1.1/DTD/svg11.dtd">
<svg version="1.1" id="Layer_1" xmlns="http://www.w3.org/2000/svg" xmlns:xlink="http://www.w3.org/1999/xlink" x="0px" y="0px"
	 width="207.914px" height="57.554px" viewBox="0 0 207.914 57.554" enable-background="new 0 0 207.914 57.554"
	 xml:space="preserve">
<g>
	<path d="M9.681,9.739v35.729h35.556V9.739H9.681z M28.966,39.181c-6.963,0-12.604-5.658-12.604-12.634
		c0-4.999,2.897-9.312,7.099-11.354c-0.805,1.654-1.26,3.536-1.26,5.515c0,6.966,5.641,12.631,12.6,12.631
		c1.977,0,3.851-0.462,5.515-1.267C38.264,36.277,33.951,39.181,28.966,39.181z"/>
	<g>
		<polygon fill-rule="evenodd" clip-rule="evenodd" points="64.929,45.688 64.929,13.634 58.866,16.667 58.866,45.688 		"/>
	</g>
	<g>
		<path fill-rule="evenodd" clip-rule="evenodd" d="M90.771,45.688V22.604h-6.045v12.617c0,3.997-1.461,5.223-3.957,5.223
			c-2.506,0-3.919-1.226-3.919-5.356V22.604h-6.038v13.008c0,6.517,2.629,10.552,8.508,10.552c2.411,0,4.354-0.921,5.407-2.017
			v1.542H90.771z"/>
	</g>
	<g>
		<path fill-rule="evenodd" clip-rule="evenodd" d="M116.62,45.688V32.671c0-6.504-2.629-10.549-8.511-10.549
			c-2.418,0-4.347,0.92-5.39,2.021v-1.539h-6.056v23.085h6.056V33.064c0-3.99,1.447-5.233,3.943-5.233
			c2.503,0,3.902,1.243,3.902,5.369v12.488H116.62z"/>
	</g>
	<g>
		<path fill-rule="evenodd" clip-rule="evenodd" d="M141.033,45.688v-15.48c0-5.186-3.777-8.087-9.36-8.087
			c-3.729,0-5.964,0.791-8.633,2.333l2.323,4.225c2.109-1.148,3.553-1.545,6.31-1.545c2.201,0,3.301,1.314,3.301,2.948v1.141
			c-0.971-0.486-2.33-0.927-4.436-0.927c-5.223,0-9.347,2.55-9.347,7.651c0,5.58,4.3,8.216,8.606,8.216
			c2.143,0,4.076-0.88,5.176-2.017v1.542H141.033z M134.974,38.909c-0.662,1.097-2.241,2.119-4.215,2.119
			c-2.595,0-3.508-1.46-3.508-3.081c0-1.847,1.229-2.9,3.508-2.9c2.157,0,3.162,0.312,4.215,0.964V38.909z"/>
	</g>
	<g>
		<path fill-rule="evenodd" clip-rule="evenodd" d="M161.733,23.748c-0.784-0.835-2.282-1.627-4.252-1.627
			c-2.153,0-3.682,0.92-4.734,2.021v-1.539h-6.069v23.085h6.069V33.2c0-4.001,1.532-5.009,3.909-5.009
			c1.345,0,2.537,0.615,3.501,1.491L161.733,23.748z"/>
	</g>
	<g>
		<rect x="165.683" y="22.604" fill-rule="evenodd" clip-rule="evenodd" width="6.052" height="23.085"/>
	</g>
	<g>
		<path fill-rule="evenodd" clip-rule="evenodd" d="M197.499,34.165c0-7.071-4.432-12.043-10.447-12.043
			c-6.008,0-10.406,4.972-10.406,12.043c0,7.081,4.398,11.999,10.406,11.999C193.067,46.164,197.499,41.246,197.499,34.165z
			 M191.359,34.165c0,3.203-1.41,6.154-4.307,6.154c-2.894,0-4.259-2.591-4.259-6.154c0-3.566,1.365-6.195,4.259-6.195
			C189.949,27.97,191.359,30.646,191.359,34.165z"/>
	</g>
	<path d="M171.895,14.799c0,1.729-1.406,3.135-3.124,3.135c-1.725,0-3.128-1.406-3.128-3.135c0-1.725,1.403-3.121,3.128-3.121
		C170.488,11.678,171.895,13.074,171.895,14.799z"/>
</g>
</svg>
