<?xml version="1.0" encoding="utf-8"?>
<!-- Generator: Adobe Illustrator 17.0.0, SVG Export Plug-In . SVG Version: 6.00 Build 0)  -->
<!DOCTYPE svg PUBLIC "-//W3C//DTD SVG 1.1//EN" "http://www.w3.org/Graphics/SVG/1.1/DTD/svg11.dtd">
<svg version="1.1" id="Layer_1" xmlns="http://www.w3.org/2000/svg" xmlns:xlink="http://www.w3.org/1999/xlink" x="0px" y="0px"
	 width="444.203px" height="82.609px" viewBox="0 0 444.203 82.609" enable-background="new 0 0 444.203 82.609"
	 xml:space="preserve">
<rect x="258.559" y="17.811" width="2.594" height="17.011"/>
<polygon points="242.637,63.323 242.591,63.323 238.704,50.372 236.03,50.37 241.609,67.39 243.621,67.39 249.247,50.377 
	246.528,50.376 "/>
<path d="M282.795,30.029c0.001-1.751-0.916-3.502-2.738-3.905v-0.073c2.002-0.892,2.522-2.242,2.522-3.659
	c0.001-2.682-1.734-4.57-5.071-4.572l-6.598-0.004l-0.008,17.011l7.158,0.004C280.618,34.833,282.794,32.979,282.795,30.029z
	 M273.481,20.113l3.764,0.002c1.848,0.001,2.714,1.136,2.713,2.467c0,1.314-0.867,2.452-2.715,2.451l-3.765-0.002L273.481,20.113z
	 M273.475,32.43l0.002-5.115l3.979,0.002c1.907,0,2.767,1.206,2.766,2.537c-0.001,1.353-0.862,2.579-2.769,2.578L273.475,32.43z"/>
<path d="M279.772,57.684c-0.844-0.079-1.463-0.16-1.902-0.243c-1.751-0.284-2.456-1.211-2.456-2.171
	c0.001-1.634,1.279-2.399,2.878-2.398c1.509,0.001,2.96,0.514,4.175,1.302l1.437-2.155c-1.53-1.037-3.4-1.757-5.48-1.759
	c-3.523-0.002-5.558,2.036-5.559,4.945c-0.001,2.448,1.556,4.377,4.501,4.761c0.912,0.142,1.478,0.265,2.243,0.347
	c1.546,0.184,2.23,1.086,2.23,2.276c-0.001,1.395-1.279,2.379-3.349,2.378c-1.841-0.001-3.555-0.662-4.826-1.702l-1.693,1.908
	c1.781,1.566,3.975,2.35,6.47,2.351c3.67,0.002,5.992-1.81,5.993-4.934C284.435,60.29,282.932,58.095,279.772,57.684z"/>
<path d="M246.925,26.106v-0.073c1.985-0.891,2.5-2.242,2.5-3.658c0.001-2.682-1.726-4.57-5.059-4.572l-6.605-0.004l-0.008,17.011
	l7.19,0.004c2.57,0.002,4.729-1.853,4.73-4.803C249.674,28.26,248.762,26.51,246.925,26.106z M240.371,20.095l3.726,0.002
	c1.865,0.001,2.758,1.135,2.756,2.466c0,1.314-0.894,2.452-2.759,2.452l-3.726-0.002L240.371,20.095z M244.314,32.415l-3.95-0.002
	l0.002-5.115l3.95,0.002c1.919,0.001,2.784,1.206,2.783,2.537C247.099,31.19,246.233,32.416,244.314,32.415z"/>
<path d="M258.597,50.382l-6.16,17.013l2.74,0.001l1.327-3.803l6.434,0.004l1.303,3.804l2.711,0.001l-6.187-17.019L258.597,50.382z
	 M257.233,61.268l2.47-7.389h0.024l2.47,7.391L257.233,61.268z"/>
<rect x="307.335" y="17.837" width="2.609" height="17.011"/>
<path d="M380.04,20.327c1.624,0.001,2.819,1.155,3.256,2.455l2.694,0.002c-0.533-2.758-2.733-5.034-5.949-5.036
	c-2.67-0.001-4.545,1.57-5.348,3.075c-0.546,0.975-0.708,1.494-0.709,5.58c-0.003,4.079,0.158,4.586,0.703,5.567
	c0.801,1.482,2.676,3.061,5.346,3.062c2.897,0.002,5.299-1.726,5.954-4.89l-2.694-0.002c-0.745,1.5-1.808,2.347-3.259,2.346
	c-1.234-0.001-2.114-0.61-2.638-1.259c-0.664-0.866-0.862-1.354-0.859-4.823c0.001-3.506,0.199-3.981,0.866-4.851
	C377.926,20.909,378.806,20.326,380.04,20.327z"/>
<polygon points="368.358,67.456 379.186,67.462 379.187,65.021 370.912,65.017 370.915,60.012 377.973,60.015 377.974,57.709 
	370.916,57.705 370.918,52.921 379.194,52.926 379.195,50.446 368.367,50.44 "/>
<polygon points="389.823,50.451 387.192,50.45 387.183,67.466 398.089,67.472 398.091,65.031 389.815,65.027 "/>
<path d="M405.465,34.899l-6.228-17.014l-2.08-0.001l-6.219,17.008l2.699,0.001l1.342-3.793l6.456,0.004l1.293,3.794L405.465,34.899z
	 M395.716,28.816l2.435-7.452h0.058l2.481,7.455L395.716,28.816z"/>
<path d="M428.303,57.762c-0.839-0.079-1.463-0.159-1.904-0.242c-1.729-0.284-2.444-1.211-2.444-2.172
	c0.001-1.634,1.289-2.398,2.866-2.397c1.499,0.001,2.972,0.513,4.214,1.302l1.42-2.155c-1.53-1.037-3.405-1.757-5.533-1.758
	c-3.484-0.002-5.499,2.035-5.5,4.944c-0.001,2.448,1.546,4.378,4.52,4.762c0.875,0.142,1.468,0.264,2.224,0.347
	c1.519,0.183,2.215,1.086,2.215,2.276c-0.001,1.395-1.274,2.379-3.393,2.378c-1.811-0.001-3.516-0.663-4.793-1.702l-1.69,1.908
	c1.813,1.567,3.983,2.351,6.482,2.352c3.643,0.002,5.977-1.811,5.978-4.934C432.966,60.368,431.473,58.173,428.303,57.762z"/>
<path d="M408.229,50.329c-2.677-0.001-4.491,1.57-5.285,3.059c-0.567,0.985-0.74,1.497-0.742,5.549
	c-0.001,4.108,0.171,4.569,0.736,5.603c0.791,1.498,2.605,3.052,5.282,3.053c2.684,0.001,4.508-1.551,5.358-3.048
	c0.524-1.033,0.735-1.494,0.736-5.602c0.003-4.052-0.207-4.564-0.73-5.55C412.737,51.905,410.913,50.331,408.229,50.329z
	 M410.898,63.78c-0.534,0.692-1.429,1.257-2.677,1.257c-1.204-0.001-2.065-0.567-2.604-1.259c-0.638-0.881-0.847-1.342-0.846-4.838
	c0.002-3.433,0.212-3.947,0.851-4.815c0.54-0.661,1.401-1.184,2.605-1.184c1.248,0.001,2.143,0.525,2.676,1.186
	c0.641,0.869,0.814,1.383,0.812,4.816C411.714,62.439,411.541,62.9,410.898,63.78z"/>
<polygon points="301.602,32.445 293.307,32.441 293.315,17.829 290.74,17.827 290.731,34.839 301.601,34.844 "/>
<polygon points="356.011,34.873 366.866,34.879 366.867,32.48 358.578,32.475 358.58,27.433 365.638,27.437 365.64,25.167 
	358.581,25.163 358.583,20.316 366.873,20.32 366.875,17.867 356.02,17.862 "/>
<path d="M315.193,50.28c-2.646-0.001-4.491,1.57-5.299,3.06c-0.535,0.984-0.754,1.496-0.757,5.549
	c-0.001,4.108,0.217,4.569,0.751,5.604c0.806,1.497,2.651,3.051,5.297,3.053c2.706,0.002,4.53-1.551,5.348-3.047
	c0.529-1.034,0.74-1.495,0.741-5.603c0.002-4.052-0.207-4.564-0.735-5.549C319.723,51.855,317.899,50.282,315.193,50.28z
	 M317.811,63.731c-0.497,0.692-1.392,1.257-2.626,1.256c-1.178,0-2.058-0.567-2.609-1.259c-0.664-0.881-0.837-1.342-0.836-4.838
	c0.003-3.433,0.176-3.947,0.842-4.815c0.551-0.661,1.431-1.184,2.609-1.184c1.234,0.001,2.129,0.525,2.626,1.187
	c0.691,0.868,0.874,1.382,0.872,4.815C318.688,62.39,318.505,62.851,317.811,63.731z"/>
<path d="M330.056,31.946c0.567-0.98,0.75-1.487,0.752-5.566c0.001-4.086-0.18-4.606-0.746-5.582
	c-0.796-1.505-2.63-3.078-5.307-3.079c-2.684-0.002-4.567,1.57-5.316,3.074c-0.597,0.975-0.762,1.494-0.763,5.58
	c-0.002,4.079,0.161,4.586,0.757,5.567c0.747,1.483,2.63,3.061,5.314,3.063C327.424,35.004,329.257,33.427,330.056,31.946z
	 M327.342,31.201c-0.5,0.648-1.4,1.257-2.594,1.257c-1.217-0.001-2.097-0.611-2.631-1.26c-0.701-0.866-0.886-1.354-0.884-4.823
	c0.001-3.506,0.187-3.981,0.89-4.851c0.534-0.643,1.414-1.226,2.631-1.225c1.195,0.001,2.094,0.583,2.594,1.228
	c0.674,0.87,0.857,1.346,0.856,4.852C328.201,29.848,328.019,30.335,327.342,31.201z"/>
<polygon points="339.122,62.511 339.034,62.511 331.377,50.42 328.941,50.419 328.933,67.435 331.505,67.436 331.511,55.321 
	331.548,55.321 339.251,67.441 341.655,67.442 341.664,50.426 339.128,50.425 "/>
<path d="M297.29,52.882c1.597,0,2.867,1.081,3.264,2.423l2.682,0.001c-0.506-2.785-2.711-5.034-5.944-5.035
	c-2.716-0.002-4.528,1.57-5.331,3.059c-0.552,0.985-0.735,1.497-0.738,5.549c-0.001,4.108,0.18,4.57,0.731,5.603
	c0.801,1.498,2.613,3.051,5.329,3.053c2.914,0.001,5.308-1.716,5.949-4.861l-2.682-0.001c-0.777,1.499-1.862,2.305-3.266,2.305
	c-1.217-0.001-2.111-0.567-2.626-1.26c-0.655-0.88-0.847-1.341-0.846-4.837c0.003-3.433,0.195-3.947,0.852-4.815
	C295.179,53.405,296.073,52.882,297.29,52.882z"/>
<polygon points="337.037,20.146 341.68,20.148 341.672,34.865 344.284,34.867 344.291,20.15 348.938,20.152 348.939,17.858 
	337.039,17.852 "/>
<path d="M355.463,52.913c1.573,0.001,2.799,1.082,3.212,2.423l2.699,0.001c-0.481-2.784-2.714-5.034-5.91-5.035
	c-2.745-0.001-4.528,1.57-5.39,3.059c-0.54,0.985-0.708,1.497-0.711,5.549c-0.001,4.108,0.166,4.569,0.705,5.603
	c0.859,1.498,2.642,3.052,5.387,3.053c2.862,0.002,5.271-1.716,5.915-4.861l-2.699-0.001c-0.735,1.499-1.83,2.305-3.215,2.305
	c-1.248-0.001-2.143-0.567-2.677-1.259c-0.628-0.881-0.869-1.342-0.868-4.838c0.003-3.433,0.244-3.948,0.874-4.815
	C353.32,53.436,354.214,52.912,355.463,52.913z"/>
<polygon points="107.272,55.476 107.167,55.476 95.882,17.724 87.957,17.72 104.268,67.317 110.132,67.32 126.494,17.741 
	118.564,17.737 "/>
<path d="M56.013,41.8v-0.146c5.766-2.545,7.33-6.526,7.332-10.651c0.004-7.77-5.034-13.298-14.667-13.303l-19.255-0.01
	l-0.026,49.588l20.869,0.011c7.458,0.004,13.817-5.537,13.822-14.068C64.091,48.188,61.431,43.041,56.013,41.8z M36.94,24.376
	l10.854,0.006c5.445,0.002,7.996,3.269,7.994,7.085c-0.002,3.918-2.557,7.12-8.002,7.118l-10.854-0.006L36.94,24.376z
	 M48.461,60.165l-11.54-0.006l0.008-14.873l11.54,0.006c5.577,0.003,8.106,3.52,8.103,7.463
	C56.571,56.6,54.038,60.168,48.461,60.165z"/>
<rect x="14.398" y="15.297" width="2.154" height="51.907"/>
<rect x="75.486" y="15.292" width="2.19" height="51.909"/>
<rect x="136.634" y="15.312" width="2.141" height="51.872"/>
<rect x="212.915" y="15.253" width="2.176" height="51.946"/>
<path d="M151.134,42.491l-0.013,24.617l24.739,0.013c13.727-0.002,24.824-11.113,24.831-24.769l0.013-24.664l-24.768-0.013
	C162.234,17.764,151.141,28.849,151.134,42.491z M193.137,25.229l-0.009,17.219h0.055c-0.06,9.476-7.869,17.194-17.374,17.19
	l-11.737-0.006l11.012-10.99c1.507-1.443,1.508-3.853,0.003-5.309c-1.46-1.468-3.841-1.469-5.333-0.003l-11.106,11.099l0.006-12.015
	c0.065-9.499,7.833-17.199,17.354-17.194L193.137,25.229z"/>
</svg>
