<?xml version="1.0" encoding="utf-8"?>
<!-- Generator: Adobe Illustrator 17.0.0, SVG Export Plug-In . SVG Version: 6.00 Build 0)  -->
<!DOCTYPE svg PUBLIC "-//W3C//DTD SVG 1.1//EN" "http://www.w3.org/Graphics/SVG/1.1/DTD/svg11.dtd">
<svg version="1.1" id="Layer_1" xmlns="http://www.w3.org/2000/svg" xmlns:xlink="http://www.w3.org/1999/xlink" x="0px" y="0px"
	 width="538px" height="308px" viewBox="0 0 538 308" enable-background="new 0 0 538 308" xml:space="preserve">
<g>
	<path fill="#2A3138" d="M382.925,121.266c-1.978-4.978-8.157-8.628-15.504-8.628c-4.396,0-8.386,1.347-11.289,3.455l-56.342-10.752
		c-3.162-5.383-10.493-9.162-19.023-9.162c-4.72,0-9.051,1.15-12.537,3.098l-79.242-15.181l-9.667,92.736h6.602l7.525-75.286
		c2.708-0.323,5.465-0.453,8.304-0.453c29.29,0,53.05,16.948,53.05,37.837v37.902h7.056v-65.62c0-7.33,8.481-13.298,18.91-13.298
		c10.477,0,18.927,5.968,18.927,13.298v65.62h53.276v-52.094c0-5.74,6.504-10.33,14.451-10.33c8.012,0,14.515,4.59,14.515,10.33
		v52.094h8.807l12.991-51.605L382.925,121.266z"/>
	<polygon fill="#2A3138" points="412.215,177.057 410.366,176.587 427.753,106.589 118.324,21.621 135.807,176.716 133.926,176.895 
		116.151,19.075 430.023,105.275 	"/>
	<path fill="#2A3138" d="M15.873,248.109l14.775-41.244h13.753l14.759,41.244H45.731l-1.59-5.449H30.648l-1.541,5.449H15.873z
		 M37.412,219.305L33.26,234.08h8.482L37.412,219.305z"/>
	<path fill="#2A3138" d="M95.181,248.109H84.152v-4.395c-2.968,4.102-5.871,5.254-10.817,5.254c-6.536,0-10.753-4.023-10.753-12.602
		V218.09h11.904v16.201c0,4.15,1.396,5.465,4.297,5.465c3.423,0,4.509-2.594,4.509-7.25V218.09h11.889V248.109z"/>
	<path fill="#2A3138" d="M122.72,248.109v-4.021c-2.806,3.664-5.32,4.881-9.212,4.881c-9.033,0-13.592-6.828-13.592-15.309
		c0-9.959,5.547-16.398,12.683-16.398c3.779,0,6.423,0.893,8.937,3.859v-14.256h11.905v41.244H122.72z M121.925,233.367
		c0-3.277-1.151-6.926-5.076-6.926c-3.99,0-5.044,3.795-5.044,7.119c0,3.131,0.794,6.828,4.688,6.828
		C120.644,240.389,121.925,236.887,121.925,233.367"/>
	<path fill="#2A3138" d="M139.765,205.779h11.856v8.482h-11.856V205.779z M139.765,218.09h11.856v30.02h-11.856V218.09z"/>
	<path fill="#2A3138" d="M177.814,248.109c-15.668,0.859-17.516-0.258-17.516-10.623v-12.504h-4.234v-6.893h4.396v-9.309h11.741
		v9.309h5.741v6.893h-5.741v10.883c0,2.74,0.422,3.697,3.73,3.697h1.882V248.109z"/>
	<path fill="#2A3138" d="M199.707,217.262c10.591,0,17.127,6.211,17.127,15.57c0,10.98-7.46,16.137-17.062,16.137
		c-9.633,0-17.077-5.254-17.077-15.537C182.694,223.035,189.555,217.262,199.707,217.262 M194.598,232.832
		c0,5.643,2.109,8.094,5.174,8.094c3.18,0,5.109-2.451,5.109-8.094c0-4.445-1.93-7.721-5.011-7.592
		C195.815,225.24,194.598,229.441,194.598,232.832"/>
	<path fill="#2A3138" d="M221.846,218.09h10.85v6.064h0.098c1.653-4.654,4.557-6.893,9.212-6.893c0.519,0,1.021,0.098,1.541,0.162
		v11.889c-0.796-0.113-1.671-0.342-2.466-0.342c-4.849,0-7.331,2.289-7.331,8.773v10.365h-11.903V218.09z"/>
	<path fill="#2A3138" d="M247.844,205.779h11.903v8.482h-11.903V205.779z M247.844,218.09h11.903v30.02h-11.903V218.09z"/>
	<path fill="#2A3138" d="M282.372,217.262c10.623,0,17.095,6.211,17.095,15.57c0,10.98-7.396,16.137-17.03,16.137
		c-9.633,0-17.077-5.254-17.077-15.537C265.359,223.035,272.219,217.262,282.372,217.262 M277.263,232.832
		c0,5.643,2.109,8.094,5.174,8.094c3.18,0,5.157-2.451,5.157-8.094c0-4.445-1.978-7.721-5.06-7.592
		C278.478,225.24,277.263,229.441,277.263,232.832"/>
	<polygon fill="#2A3138" points="333.151,206.98 338.52,206.98 338.52,248.109 332.292,248.109 311.402,214.893 311.273,214.893 
		311.273,248.109 305.921,248.109 305.921,206.98 312.489,206.98 333.037,240.193 333.151,240.193 	"/>
	<path fill="#2A3138" d="M346.434,227.252c0.26-7.152,5.012-9.959,12.375-9.959c2.4,0,11.109,0.697,11.109,8.354v17.225
		c0,1.281,0.665,1.799,1.655,1.799c0.47,0,1.086-0.129,1.653-0.225v3.664c-0.859,0.227-1.589,0.568-2.741,0.568
		c-4.459,0-5.206-2.289-5.318-4.59c-1.914,2.141-4.979,4.881-10.818,4.881c-5.53,0-9.423-3.502-9.423-8.676
		c0-2.516,0.746-8.354,9.131-9.375l8.255-1.021c1.249-0.1,2.659-0.553,2.659-3.553c0-3.146-2.271-4.883-7.022-4.883
		c-5.741,0-6.504,3.521-6.893,5.791H346.434z M364.842,232.832c-0.763,0.6-2.043,1.086-8.271,1.881
		c-2.448,0.357-6.406,1.088-6.406,4.85c0,3.26,1.655,5.223,5.417,5.223c4.703,0,9.261-3.049,9.261-7.041V232.832z"/>
	<path fill="#2A3138" d="M397.165,228.242c-0.616-4.023-2.87-6.424-7.088-6.424c-6.26,0-8.238,5.971-8.238,11.273
		c0,5.156,1.216,11.514,8.174,11.514c3.389,0,6.292-2.529,7.152-7.119h4.881c-0.551,4.783-3.454,11.482-12.195,11.482
		c-8.45,0-13.396-6.375-13.396-15.02c0-9.258,4.46-16.623,14.353-16.623c7.85,0,10.817,5.709,11.238,10.916H397.165z"/>
	<path fill="#2A3138" d="M407.204,206.98h5.011v5.756h-5.011V206.98z M412.215,248.109h-5.011v-29.955h5.011V248.109z"/>
	<path fill="#2A3138" d="M432.002,217.326c9.536,0,13.866,8.029,13.866,15.766c0,7.75-4.33,15.812-13.866,15.812
		c-9.602,0-13.947-8.062-13.947-15.812C418.055,225.355,422.4,217.326,432.002,217.326 M432.002,244.541
		c7.169,0,8.676-7.41,8.676-11.449c0-3.992-1.507-11.434-8.676-11.434c-7.25,0-8.709,7.441-8.709,11.434
		C423.293,237.131,424.752,244.541,432.002,244.541"/>
	<path fill="#2A3138" d="M476.002,248.109h-5.012v-18.473c0-5.174-1.541-7.818-6.422-7.818c-2.87,0-7.915,1.818-7.915,9.959v16.332
		h-4.995v-29.955h4.72v4.248h0.13c1.038-1.605,3.892-5.109,9.018-5.109c4.653,0,10.477,1.883,10.477,10.43V248.109z"/>
	<path fill="#2A3138" d="M483.268,227.252c0.227-7.152,5.012-9.959,12.374-9.959c2.4,0,11.143,0.697,11.143,8.354v17.225
		c0,1.281,0.6,1.799,1.59,1.799c0.486,0,1.15-0.129,1.719-0.225v3.664c-0.859,0.227-1.622,0.568-2.741,0.568
		c-4.46,0-5.189-2.289-5.352-4.59c-1.946,2.141-4.979,4.881-10.785,4.881c-5.515,0-9.406-3.502-9.406-8.676
		c0-2.516,0.729-8.354,9.082-9.375l8.304-1.021c1.2-0.1,2.644-0.553,2.644-3.553c0-3.146-2.303-4.883-7.056-4.883
		c-5.709,0-6.503,3.521-6.859,5.791H483.268z M501.707,232.832c-0.794,0.6-2.075,1.086-8.286,1.881
		c-2.466,0.357-6.424,1.088-6.424,4.85c0,3.26,1.688,5.223,5.466,5.223c4.655,0,9.244-3.049,9.244-7.041V232.832z"/>
	<rect x="515.396" y="206.98" fill="#2A3138" width="5.044" height="41.129"/>
	<g>
		<path fill="#2A3138" d="M147.16,277.512c0-2.496-1.945-2.918-3.309-2.918c-2.562,0-5.027,1.881-5.807,5.58
			c-0.713,3.34-0.064,5.871,3.406,5.871c1.232,0,3.503-0.586,4.866-3.859h1.849c-1.947,5.318-6.293,5.545-7.363,5.545
			c-3.179,0-5.903-2.109-4.703-7.492c0.875-4.348,4.021-7.33,8.109-7.33c3.633,0,5.027,2.203,4.8,4.603H147.16z"/>
		<polygon fill="#2A3138" points="159.94,287.375 149.561,287.375 152.513,273.264 162.795,273.264 162.438,274.951 
			154.069,274.951 153.16,279.297 160.881,279.297 160.524,280.951 152.804,280.951 151.799,285.688 160.298,285.688 		"/>
		<polygon fill="#2A3138" points="174.796,273.264 176.645,273.264 173.629,287.375 171.487,287.375 166.752,275.988 
			166.72,275.988 164.254,287.375 162.438,287.375 165.422,273.264 167.692,273.264 172.331,284.65 172.363,284.65 		"/>
		<polygon fill="#2A3138" points="178.364,273.264 189.814,273.264 189.49,274.951 184.723,274.951 182.061,287.375 
			180.181,287.375 182.808,274.951 178.008,274.951 		"/>
		<path fill="#2A3138" d="M190.723,287.375h-1.882l2.984-14.111h6.52c2.336,0,4.477,0.81,3.827,3.795
			c-0.421,2.076-1.653,2.855-2.691,3.375c0.778,0.322,1.459,0.678,1.135,2.658l-0.421,2.529c-0.162,0.779-0.098,1.105,0.421,1.43
			l-0.064,0.324h-2.368c-0.064-0.877,0.324-3.018,0.423-3.537c0.259-1.168,0.291-2.529-1.947-2.529h-4.638L190.723,287.375z
			 M192.377,279.685h4.411c1.395,0,2.952-0.357,3.374-2.433c0.485-2.172-1.071-2.367-2.012-2.367h-4.769L192.377,279.685z"/>
		<path fill="#2A3138" d="M208.465,287.73c-5.287,0-5.968-4.379-5.318-7.428c0.648-3.018,3.21-7.395,8.466-7.395
			c5.254,0,5.936,4.377,5.286,7.395C216.25,283.352,213.688,287.73,208.465,287.73 M211.256,274.594c-3.082,0-5.418,2.4-6.132,5.709
			c-0.714,3.342,0.617,5.742,3.665,5.742c3.082,0,5.45-2.4,6.132-5.742C215.634,276.994,214.304,274.594,211.256,274.594"/>
		<path fill="#2A3138" d="M226.208,273.264h5.677c3.697,0,5.352,2.789,4.509,6.846c-0.681,3.178-2.919,7.266-7.558,7.266h-5.611
			L226.208,273.264z M225.463,285.721h3.697c2.465,0,4.477-1.947,5.254-5.482c0.714-3.568-0.519-5.354-3.113-5.354h-3.535
			L225.463,285.721z"/>
		<polygon fill="#2A3138" points="247.876,287.375 237.464,287.375 240.48,273.264 250.73,273.264 250.373,274.951 242.005,274.951 
			241.097,279.297 248.816,279.297 248.459,280.951 240.74,280.951 239.734,285.688 248.232,285.688 		"/>
		<path fill="#2A3138" d="M258.903,283.256l-2.335,4.119h-1.945l8.271-14.111h2.173l2.107,14.111H265.1l-0.52-4.119H258.903z
			 M264.224,281.568l-0.746-6.229h-0.032l-3.601,6.229H264.224z"/>
		<path fill="#2A3138" d="M271.035,287.375h-1.881l3.017-14.111h6.486c2.304,0,4.477,0.81,3.829,3.795
			c-0.423,2.076-1.655,2.855-2.693,3.375c0.746,0.322,1.493,0.678,1.136,2.658l-0.422,2.529c-0.13,0.779-0.13,1.105,0.389,1.43
			l-0.064,0.324h-2.335c-0.065-0.877,0.323-3.018,0.453-3.537c0.228-1.168,0.293-2.529-2.01-2.529h-4.607L271.035,287.375z
			 M272.69,279.685h4.444c1.362,0,2.886-0.357,3.341-2.433c0.454-2.172-1.07-2.367-2.012-2.367h-4.768L272.69,279.685z"/>
		<polygon fill="#2A3138" points="284.27,273.264 295.72,273.264 295.363,274.951 290.562,274.951 287.967,287.375 286.054,287.375 
			288.713,274.951 283.913,274.951 		"/>
		<polygon fill="#2A3138" points="305.061,287.375 294.714,287.375 297.666,273.264 307.947,273.264 307.591,274.951 
			299.223,274.951 298.315,279.297 306.034,279.297 305.677,280.951 297.958,280.951 296.952,285.688 305.45,285.688 		"/>
		<polygon fill="#2A3138" points="317.289,287.375 315.376,287.375 316.576,281.697 313.073,273.264 315.279,273.264 
			317.874,280.043 323.355,273.264 325.561,273.264 318.457,281.697 		"/>
		<path fill="#2A3138" d="M341.812,277.512c0-2.496-1.979-2.918-3.309-2.918c-2.562,0-5.061,1.881-5.839,5.58
			c-0.682,3.34-0.064,5.871,3.438,5.871c1.232,0,3.503-0.586,4.865-3.859h1.815c-1.913,5.318-6.292,5.545-7.33,5.545
			c-3.211,0-5.903-2.109-4.735-7.492c0.94-4.348,4.021-7.33,8.142-7.33c3.6,0,5.027,2.203,4.8,4.603H341.812z"/>
		<path fill="#2A3138" d="M358.16,273.264l-1.979,9.146c-0.617,2.889-2.92,5.32-6.779,5.32c-3.795,0-4.898-2.432-4.38-5.061
			l2.012-9.406h1.946l-1.914,8.887c-0.649,3.049,1.038,3.895,2.725,3.895c1.784,0,3.893-0.812,4.541-3.859l1.914-8.922H358.16z"/>
		<polygon fill="#2A3138" points="360.43,285.688 367.566,285.688 367.209,287.375 358.16,287.375 361.177,273.264 363.091,273.264 
					"/>
		<polygon fill="#2A3138" points="368.702,273.264 380.152,273.264 379.795,274.951 374.994,274.951 372.367,287.375 
			370.485,287.375 373.112,274.951 368.345,274.951 		"/>
		<path fill="#2A3138" d="M393.029,273.264l-1.914,9.146c-0.648,2.889-2.984,5.32-6.811,5.32c-3.795,0-4.865-2.432-4.347-5.061
			l2.012-9.406h1.881l-1.881,8.887c-0.648,3.049,1.07,3.895,2.756,3.895c1.753,0,3.861-0.812,4.509-3.859l1.914-8.922H393.029z"/>
		<path fill="#2A3138" d="M395.234,287.375h-1.913l2.983-14.111h6.521c2.303,0,4.477,0.81,3.827,3.795
			c-0.422,2.076-1.654,2.855-2.692,3.375c0.747,0.322,1.492,0.678,1.136,2.658l-0.421,2.529c-0.163,0.779-0.13,1.105,0.421,1.43
			l-0.098,0.324h-2.335c-0.098-0.877,0.324-3.018,0.454-3.537c0.227-1.168,0.291-2.529-1.978-2.529H396.5L395.234,287.375z
			 M396.824,279.685h4.444c1.395,0,2.951-0.357,3.372-2.433c0.487-2.172-1.069-2.367-2.01-2.367h-4.769L396.824,279.685z"/>
		<path fill="#2A3138" d="M410.35,283.256l-2.367,4.119h-1.946l8.271-14.111h2.174l2.108,14.111h-2.076l-0.52-4.119H410.35z
			 M415.67,281.568l-0.746-6.229h-0.065l-3.567,6.229H415.67z"/>
	</g>
</g>
</svg>
